<?xml version="1.0" encoding="UTF-8"?>
<svg id="Layer_2" data-name="Layer 2" xmlns="http://www.w3.org/2000/svg" xmlns:xlink="http://www.w3.org/1999/xlink" viewBox="0 0 703.62 171.92">
  <defs>
    <style>
      .cls-1, .cls-2 {
        fill: #231f20;
      }

      .cls-3, .cls-4 {
        fill: #fff;
      }

      .cls-5, .cls-6 {
        fill: none;
      }

      .cls-7 {
        clip-path: url(#clippath-1);
      }

      .cls-8 {
        clip-path: url(#clippath-3);
      }

      .cls-2, .cls-6, .cls-4 {
        stroke: #fff;
        stroke-miterlimit: 10;
      }

      .cls-6, .cls-4 {
        stroke-width: 2px;
      }

      .cls-9 {
        clip-path: url(#clippath-2);
      }

      .cls-10 {
        clip-path: url(#clippath);
      }
    </style>
    <clipPath id="clippath">
      <path class="cls-4" d="M475.18,94.62c-2.63,0-5.59-.6-6.35-2.34-.38-.87-.08-1.73.07-2.06h0c.92-2,4.19-2.71,6.71-2.72h.02c2.57,0,5.89.71,6.82,2.72.26.57.31,1.1.16,1.6-.58,1.82-3.86,2.63-6.5,2.77-.3.02-.62.03-.93.03ZM475.63,88.23h-.02c-3,0-5.43.93-6.06,2.3h0c-.09.19-.34.84-.07,1.47.57,1.29,3.27,2.07,6.59,1.89,3.07-.17,5.48-1.1,5.85-2.27.15-.48-.06-.93-.12-1.08-.64-1.38-3.11-2.3-6.16-2.3Z"/>
    </clipPath>
    <clipPath id="clippath-1">
      <path class="cls-4" d="M498.49,94.25c-2.63,0-5.59-.6-6.35-2.34-.38-.87-.08-1.73.07-2.06h0c.92-2,4.19-2.71,6.71-2.72h.02c2.57,0,5.89.71,6.82,2.72.26.57.31,1.1.16,1.6-.58,1.82-3.86,2.63-6.49,2.77-.3.02-.62.02-.93.02ZM498.95,87.86h-.02c-3,0-5.43.93-6.06,2.3h0c-.09.19-.34.84-.07,1.47.57,1.29,3.28,2.07,6.59,1.89,3.07-.17,5.48-1.1,5.85-2.27.15-.48-.06-.93-.12-1.08-.64-1.38-3.11-2.3-6.16-2.3Z"/>
    </clipPath>
    <clipPath id="clippath-2">
      <path class="cls-1" d="M475.18,94.62c-2.63,0-5.59-.6-6.35-2.34-.38-.87-.08-1.73.07-2.06h0c.92-2,4.19-2.71,6.71-2.72h.02c2.57,0,5.89.71,6.82,2.72.26.57.31,1.1.16,1.6-.58,1.82-3.86,2.63-6.5,2.77-.3.02-.62.03-.93.03ZM475.63,88.23h-.02c-3,0-5.43.93-6.06,2.3h0c-.09.19-.34.84-.07,1.47.57,1.29,3.27,2.07,6.59,1.89,3.07-.17,5.48-1.1,5.85-2.27.15-.48-.06-.93-.12-1.08-.64-1.38-3.11-2.3-6.16-2.3Z"/>
    </clipPath>
    <clipPath id="clippath-3">
      <path class="cls-1" d="M498.49,94.25c-2.63,0-5.59-.6-6.35-2.34-.38-.87-.08-1.73.07-2.06h0c.92-2,4.19-2.71,6.71-2.72h.02c2.57,0,5.89.71,6.82,2.72.26.57.31,1.1.16,1.6-.58,1.82-3.86,2.63-6.49,2.77-.3.02-.62.02-.93.02ZM498.95,87.86h-.02c-3,0-5.43.93-6.06,2.3h0c-.09.19-.34.84-.07,1.47.57,1.29,3.28,2.07,6.59,1.89,3.07-.17,5.48-1.1,5.85-2.27.15-.48-.06-.93-.12-1.08-.64-1.38-3.11-2.3-6.16-2.3Z"/>
    </clipPath>
  </defs>
  <g id="mister_nop" data-name="mister nop">
    <g>
      <path class="cls-2" d="M554.16,104.48c-.49,1.41-1.03,2.8-1.63,4.18-3.3,7.56-7.87,14.19-13.71,19.89-5.85,5.69-12.55,10.11-20.12,13.25-7.56,3.15-15.47,4.72-23.7,4.72-.38,0-.76,0-1.14-.01-7.54-4.8-12.52-11.1-15.7-16.1-.06-.09-.12-.19-.18-.28-.03-.06-.07-.12-.1-.17-.04-.06-.07-.12-.11-.17-.02-.03-.03-.06-.05-.08-.14-.23-.27-.45-.41-.67-.01-.02-.01-.03-.02-.04-.06-.1-.11-.19-.17-.28-.06-.11-.12-.21-.18-.31-.19-.33-.38-.64-.56-.95-.05-.11-.12-.22-.18-.33l-.18-.33c-.24-.42-.46-.82-.66-1.2-.06-.11-.12-.22-.17-.32-.19-.35-.35-.67-.51-.96-2.45-4.65-2.61-6.48-2.48-7.54.08-.69.26-1.36.53-2.01.16-.4.35-.79.58-1.17.53-.91,1.22-1.79,2.07-2.61.08-.1.17-.18.26-.26.08-.08.17-.16.26-.25.59-.53,1.24-1.05,1.95-1.55.1-.08.2-.15.31-.22.1-.08.21-.15.32-.22.28-.19.57-.37.87-.55.1-.07.2-.13.31-.19.03-.02.06-.04.1-.06.07-.05.14-.09.21-.13.05-.03.09-.05.14-.07.13-.08.25-.15.38-.22.7-.39,1.43-.77,2.19-1.13.03-.01.06-.03.09-.04.07-.03.14-.07.21-.1.01-.01.02-.01.04-.01.11-.06.22-.11.33-.16.02,0,.05-.02.08-.04.05-.02.09-.04.14-.06.09-.04.17-.08.26-.11.1-.05.2-.09.31-.14.02-.01.04-.02.07-.03.09-.04.18-.08.28-.12.11-.04.23-.09.35-.14.09-.04.18-.08.27-.12.11-.04.22-.08.33-.12.08-.04.17-.07.26-.1.1-.05.21-.09.32-.12.07-.04.14-.06.21-.09h.02c.07-.03.15-.06.22-.08.03-.02.07-.03.1-.04.11-.05.23-.09.34-.13h.01s.07-.03.1-.04c.14-.05.28-.1.43-.15.14-.05.28-.1.43-.15,1.98-.68,4.09-1.27,6.27-1.78.12-.03.24-.06.36-.08.12-.03.25-.06.37-.09.63-.14,1.26-.27,1.9-.39.15-.03.31-.06.46-.09.15-.03.31-.06.46-.09,1.06-.19,2.12-.37,3.2-.52.12-.02.24-.03.36-.05.12-.02.24-.03.36-.05,2.43-.32,4.88-.53,7.32-.63.49-.02.99-.03,1.48-.04.5-.01,1-.02,1.5-.02,1.12,0,2.22.03,3.31.08.1,0,.19.01.29.01,2.12.1,4.39.22,6.72.43.2.02.4.03.6.06.18.01.37.03.56.05,1.48.15,2.98.35,4.47.61.72.13,1.44.27,2.15.44.13.02.25.05.37.08.12.03.24.06.36.09.28.06.55.13.82.21.33.08.66.18.98.28h.01c.27.08.54.16.8.25.07.02.14.04.2.06.07.02.14.05.21.07.1-.03.2-.06.31-.08h.01c2.8-.74,6.46-.85,9.65-.61,3.67.27,7.48,1.02,10.42,2.23Z"/>
      <path class="cls-1" d="M166.3,0l18.43,164.95-24.72,1.8-9.21-95.06h-.45l-57.98,95.06-57.98-95.06h-.45l-9.21,95.06-24.72-1.8L18.43,0l73.94,121.8L166.3,0Z"/>
      <path class="cls-1" d="M216.64,4.05h24.72l-28.31,59.1h-20.23l23.82-59.1Z"/>
      <path class="cls-1" d="M281.58,164.95l-23.82,1.8V0l106.97,110.34V4.95l23.82-1.8v168.77l-106.97-112.14v105.17Z"/>
      <path class="cls-1" d="M576.09,51.35c-4.72-10.41-11.24-19.47-19.55-27.19s-17.72-13.67-28.2-17.87c-10.49-4.19-21.28-6.29-32.36-6.29s-21.92,2.1-32.48,6.29c-10.56,4.2-19.96,10.15-28.2,17.87s-14.72,16.78-19.44,27.19c-4.72,10.42-7.08,21.61-7.08,33.6s2.36,23.18,7.08,33.6c4.72,10.41,11.24,19.47,19.55,27.19,8.32,7.72,17.72,13.67,28.2,17.86,10.49,4.2,21.28,6.3,32.37,6.3s21.91-2.1,32.47-6.3c10.56-4.19,19.96-10.14,28.2-17.86s14.72-16.78,19.44-27.19c4.72-10.42,7.08-21.61,7.08-33.6s-2.36-23.18-7.08-33.6ZM472.27,142.25c-2.53-1.05-4.95-2.23-7.28-3.57-.15-.08-.29-.16-.43-.25-.16-.08-.31-.17-.46-.26-.32-.19-.63-.38-.94-.58-.15-.09-.3-.18-.45-.27-.14-.09-.27-.17-.4-.26-.58-.37-1.16-.75-1.73-1.14-.15-.1-.29-.2-.44-.3-.14-.11-.29-.21-.43-.32-2.66-1.88-5.18-3.99-7.56-6.3-4.2-4.1-7.75-8.69-10.63-13.75-.41-.71-.81-1.44-1.18-2.17-.14-.25-.27-.51-.39-.76-.1-.2-.2-.4-.3-.6-.09-.17-.17-.34-.25-.52-.19-.38-.37-.77-.54-1.16-.07-.15-.14-.3-.21-.45-.07-.16-.14-.32-.21-.48h0c-.97-2.24-1.79-4.51-2.47-6.82-.06-.17-.11-.35-.16-.52-.06-.2-.11-.4-.17-.6-1.43-5.19-2.14-10.6-2.14-16.22,0-8.54,1.65-16.59,4.94-24.16,3.3-7.56,7.87-14.19,13.71-19.89,5.85-5.69,12.55-10.11,20.12-13.26,7.56-3.14,15.46-4.72,23.71-4.72s16.14,1.58,23.7,4.72c3.62,1.51,7.05,3.3,10.27,5.38,1.47.93,2.89,1.93,4.28,2.99.03.02.06.04.09.07.42.32.84.65,1.25.99.05.03.11.08.16.12.36.3.73.6,1.08.9.11.09.21.17.31.27.51.43,1.01.87,1.5,1.32.09.08.18.16.26.25.09.07.17.15.26.25.22.19.44.4.66.61.82.79,1.62,1.6,2.38,2.43.09.09.17.18.25.27.09.09.17.18.25.27.22.24.44.49.66.74,4.18,4.76,7.57,10.16,10.17,16.18,3.29,7.64,4.94,15.73,4.94,24.27,0,6.99-1.1,13.65-3.31,19.98-.49,1.41-1.03,2.8-1.63,4.18-3.3,7.56-7.87,14.19-13.71,19.89-5.85,5.69-12.55,10.11-20.12,13.25-7.56,3.15-15.47,4.72-23.7,4.72-.38,0-.76,0-1.14-.01-7.84-.14-15.36-1.71-22.57-4.71Z"/>
      <path class="cls-1" d="M602.27,4.05h46.29c16.33,0,29.59,4.2,39.78,12.58,10.19,8.39,15.28,19.7,15.28,33.93s-5.43,26.97-16.29,36.41c-10.86,9.44-26.86,14.16-47.98,14.16-4.65,0-8.76-.22-12.36-.67v64.5l-24.72,1.8V4.05ZM626.99,78.43c4.04,1.05,9.74,1.57,17.08,1.57,10.79,0,19.29-2.47,25.51-7.42,6.22-4.94,9.33-11.83,9.33-20.67,0-8.09-2.85-14.72-8.54-19.89-5.7-5.17-13.48-7.75-23.37-7.75h-20v54.16Z"/>
      <g>
        <g>
          <path class="cls-4" d="M483.11,103.49s-.01.02-.02.04c-.02-.04-.04-.09-.06-.13.03.03.05.06.08.09Z"/>
          <path class="cls-4" d="M483.07,106.7l-1.27-2.52c-.05-.1-.1-.21-.13-.32l-1.95-5.82,4.34,4.34c.06.06.12.12.17.2l.82,1.03-.77.76-1.21,2.33ZM484.37,102.86l-.48.25.52-.17s-.02-.05-.03-.08Z"/>
        </g>
        <g>
          <path class="cls-4" d="M483.64,104.57s-.04,0-.07,0c0-.06-.03-.13-.05-.19.04.06.09.13.12.2Z"/>
          <path class="cls-4" d="M485.97,106.01h-3.69s-.14-1.21-.14-1.21l-2.9-9.38,5.47,8.15c.08.11.15.23.21.36l1.04,2.08ZM483.81,103.14h.03s-.02,0-.03,0Z"/>
        </g>
        <rect class="cls-4" x="477.72" y="123.89" width="8.74" height="6.07"/>
        <g>
          <path class="cls-4" d="M425.25,116.72c-.32,1.14-.58,3.47,2.36,7.83,3.78,5.6,11.84,13.06,23.55,14.44,18.14,2.14,30.49-12.02,33.6-15.58,3.27-3.75,8.01-9.19,6.38-13.94-1.9-5.54-11.98-8.85-19.11-6.17-9.08,3.42-8.48,14.75-17.61,16.6-.52.1-5.94,1.13-10.1-1.86-3.44-2.47-2.83-5.4-5.81-6.86-4.28-2.11-11.93.81-13.27,5.53Z"/>
          <path class="cls-4" d="M454.8,139.57c-1.3,0-2.53-.08-3.68-.22-14.06-1.66-21.78-11.59-23.81-14.6-2.23-3.31-3.02-5.97-2.41-8.13h0c.62-2.2,2.56-4.16,5.33-5.39,2.98-1.33,6.22-1.47,8.45-.37,1.6.79,2.23,1.98,2.9,3.24.65,1.22,1.32,2.48,2.96,3.66,4,2.87,9.24,1.92,9.82,1.8,4.56-.92,6.62-4.31,8.79-7.89,2.09-3.44,4.25-6.99,8.76-8.69,4.08-1.54,9.52-1.22,13.86.82,2.93,1.38,4.96,3.35,5.72,5.56,1.7,4.96-3.2,10.58-6.45,14.3-11.11,12.74-22.07,15.92-30.23,15.92ZM425.6,116.82h0c-.55,1.95.21,4.41,2.32,7.53,1.99,2.94,9.54,12.67,23.3,14.29,8.19.96,20.61-.93,33.28-15.46,3.14-3.59,7.88-9.03,6.31-13.59-.69-2.02-2.59-3.85-5.34-5.14-4.17-1.96-9.39-2.28-13.3-.8-4.28,1.61-6.37,5.06-8.4,8.39-2.26,3.72-4.4,7.24-9.27,8.22-.62.12-6.14,1.13-10.38-1.92-1.78-1.27-2.52-2.67-3.17-3.9-.64-1.2-1.19-2.24-2.58-2.93-2.04-1.01-5.05-.86-7.84.38-2.57,1.14-4.36,2.94-4.93,4.93Z"/>
        </g>
        <g>
          <path class="cls-4" d="M428.06,123.37c.51-.1,1.02-.2,1.53-.3,1.85,2.41,7.72,9.4,17.87,11.77,16.58,3.87,29.33-8.14,30.3-9.09.72.08,1.44.16,2.16.24-9.15,9.82-22.32,14.02-34.1,10.66-10.29-2.93-15.96-10.6-17.76-13.29Z"/>
          <path class="cls-4" d="M454.14,138.17c-2.83,0-5.66-.38-8.41-1.17-9.63-2.74-15.38-9.59-17.96-13.43l-.3-.45,2.28-.44.14.18c2.62,3.42,8.41,9.48,17.67,11.64,16.54,3.86,29.43-8.47,29.97-8.99l.12-.12,3.04.34-.49.52c-7.18,7.71-16.64,11.93-26.05,11.93ZM428.67,123.62c2.65,3.82,8.21,10.12,17.25,12.69,11.45,3.26,24.12-.59,33.25-10.04l-1.27-.14c-1.89,1.8-14.29,12.84-30.51,9.06-9.32-2.17-15.19-8.2-17.94-11.72l-.78.15Z"/>
        </g>
        <g>
          <path class="cls-4" d="M433.48,101.83c-.74-1.34-2.34-2.83-3.81-2.86-1.48-.03-1.98,1.22-3.22,1.32-1.24.1-2.36-.73-3.48-.32-1.13.41.01,2.23-1.32,2.24-1.33.02-2.21-2.1-3.05-3.2-.62-.8-2.19-2.87-3.42-2.71-.39.05-.72.06-.81.68-.35,2.48,2.78,5.56,3.85,7.58,1.07,2.01,1.71,4.74,2.8,6.24,2.19,3.02,4.12,5.34,7.66,5.67,3.54.33,5.18-2.14,7.37-4.28.16-.15.02-.13.16-.24"/>
          <path class="cls-4" d="M429.32,116.85c-.22,0-.44-.01-.68-.03-3.67-.35-5.68-2.73-7.92-5.82-.64-.89-1.12-2.14-1.63-3.47-.37-.97-.75-1.96-1.2-2.82-.31-.58-.81-1.27-1.33-2-1.32-1.83-2.82-3.91-2.56-5.79.12-.86.69-.93,1.06-.98,1.29-.16,2.64,1.33,3.78,2.81.25.32.47.67.7,1.04.61.96,1.29,2.05,2.08,2.05h0c.3,0,.36-.05.38-.7.02-.5.05-1.24.82-1.52.74-.27,1.45-.09,2.13.09.5.13.96.25,1.45.21.47-.04.83-.28,1.23-.57.52-.36,1.1-.77,2.02-.75,1.61.03,3.29,1.56,4.12,3.05.1.17.03.39-.14.49-.17.1-.39.03-.49-.14-.72-1.3-2.23-2.65-3.51-2.68-.67-.03-1.13.3-1.6.62-.45.31-.92.64-1.59.69-.6.05-1.15-.09-1.68-.23-.63-.16-1.18-.3-1.71-.11-.28.1-.32.35-.35.88-.02.51-.06,1.37-1.09,1.39h-.02c-1.18,0-1.98-1.27-2.69-2.39-.22-.35-.43-.69-.64-.95-.53-.69-2.08-2.71-3.09-2.58-.41.05-.45.06-.5.37-.23,1.6,1.18,3.55,2.43,5.27.54.75,1.06,1.46,1.39,2.09.47.89.86,1.91,1.23,2.9.49,1.28.95,2.49,1.54,3.3,2.2,3.03,4.03,5.21,7.4,5.53,2.8.26,4.3-1.31,6.05-3.13.34-.35.67-.7,1.03-1.05.04-.14.12-.22.2-.28.16-.12.39-.09.5.07.11.14.09.34-.03.46-.03.09-.08.16-.17.25-.35.34-.69.69-1.02,1.04-1.66,1.73-3.24,3.38-5.96,3.38Z"/>
        </g>
        <g>
          <path class="cls-4" d="M421.34,111.26c1.49,2.03,4.05,5.5,7.72,5.52,3.84.02,6.55-3.78,7.2-4.77.03-.04.05-.08.07-.11,0,0,.02-.03.04-.06,2.02-3.18,2.64-8.05,2.64-8.05.34-2.67-.08-2.3.3-4.63.47-2.91,1.23-4.16.64-4.67-.67-.58-2.74.07-3.66,1.43-.65.95-.25,1.55-1.1,4.37-.39,1.29-.7,1.95-1.1,1.97-.25.01-.47-.23-.63-.47"/>
          <path class="cls-4" d="M429.08,117.14h-.03c-3.85-.02-6.45-3.55-8.01-5.67-.12-.16-.08-.39.08-.5.16-.12.39-.08.5.08,1.47,2,3.94,5.36,7.43,5.37h.02c3.56,0,6.16-3.53,6.88-4.61l.07-.11c1.99-3.14,2.62-7.91,2.62-7.96.16-1.29.15-1.84.13-2.36-.02-.55-.03-1.06.17-2.28.18-1.13.4-2,.58-2.69.22-.86.38-1.48.18-1.65-.13-.11-.4-.15-.73-.11-.76.1-1.83.64-2.4,1.47-.29.42-.33.75-.43,1.4-.09.63-.21,1.49-.63,2.88-.42,1.39-.78,2.2-1.43,2.22-.33,0-.65-.2-.94-.63-.11-.17-.07-.39.1-.5.17-.11.39-.07.5.1.18.26.28.28.31.31.03,0,.28-.06.77-1.71.4-1.34.52-2.17.6-2.77.1-.69.16-1.14.54-1.7.72-1.06,2.01-1.67,2.9-1.78.56-.07,1.01.02,1.3.28.53.46.35,1.18.04,2.37-.17.68-.39,1.53-.57,2.63-.18,1.15-.17,1.61-.16,2.14.02.53.03,1.13-.14,2.48-.03.2-.65,4.98-2.69,8.2l-.12.18c-.98,1.48-3.67,4.93-7.48,4.93Z"/>
        </g>
        <g>
          <path class="cls-4" d="M440.29,114.51c-.9-1.23-1.8-2.46-2.7-3.69-.92,1.09-2.9,3.16-6.14,4.46-2.74,1.1-5.16,1.16-6.54,1.09.62,1.05,1.23,2.11,1.85,3.16.32.54,2.58.58,3.15.61,1.48.08,2.96-.13,4.36-.63,3.77-1.34,5.57-4.23,6.02-5.01Z"/>
          <path class="cls-4" d="M430.51,120.52c-.21,0-.41,0-.62-.02h-.21c-1.71-.08-2.92-.24-3.24-.79l-2.18-3.74.66.03c2.17.1,4.38-.26,6.39-1.07,2.92-1.17,4.87-3.01,6-4.36l.3-.35,3.11,4.25-.12.2c-.65,1.12-2.56,3.87-6.21,5.17-1.24.44-2.55.66-3.87.66ZM425.55,116.75l1.52,2.6c.07.09.48.33,2.65.42h.21c1.45.09,2.87-.12,4.22-.6,3.23-1.14,5-3.5,5.71-4.65l-2.29-3.13c-1.21,1.36-3.17,3.09-5.98,4.21-1.9.76-3.99,1.14-6.03,1.14Z"/>
        </g>
        <g>
          <path class="cls-4" d="M427.48,117.58c-.29.09-.41.53-.28.76.2.34,1.04.27,1.1-.02.05-.25-.43-.85-.82-.73Z"/>
          <path class="cls-4" d="M427.75,118.92c-.34,0-.69-.12-.86-.4-.12-.21-.14-.51-.03-.77.1-.26.29-.44.52-.51h0c.28-.09.6.01.87.26.25.22.47.59.41.89-.05.27-.29.46-.66.52-.08.01-.16.02-.24.02ZM427.59,117.92s-.09.17-.07.23c.05.05.27.06.4.03-.07-.1-.25-.25-.33-.26ZM427.48,117.58h0,0Z"/>
        </g>
        <g>
          <path class="cls-4" d="M425.54,98.18c.59-2.13,1.93-3.45,3.22-3.29.76.1,1.38.69,1.7,1.01,1,.97,1.31,2.15,1.63,3.44.4,1.6.76,3.03.04,3.77-.35.36-1.01.64-1.58.37-1.39-.67-1.4-4.31-1.94-4.33-.17,0-.21.35-.63.5-.27.1-.54.05-.71,0"/>
          <path class="cls-4" d="M431.05,103.95c-.22,0-.43-.04-.64-.14-.99-.48-1.34-2.01-1.62-3.25-.06-.28-.14-.63-.21-.86-.1.1-.25.22-.45.29-.28.1-.6.1-.94,0-.19-.06-.3-.26-.24-.45.06-.19.26-.3.45-.24.19.05.35.06.49.01.14-.05.2-.13.27-.23.09-.11.22-.28.49-.29.49.02.62.62.85,1.61.22.97.55,2.43,1.23,2.76.39.19.89-.01,1.16-.3.58-.6.23-1.97-.13-3.43-.31-1.22-.59-2.36-1.54-3.28-.3-.29-.85-.83-1.49-.91-1.12-.15-2.31,1.14-2.83,3.03-.05.19-.25.31-.44.25-.19-.05-.3-.25-.25-.44.63-2.28,2.11-3.75,3.61-3.55.88.11,1.55.76,1.91,1.11,1.09,1.07,1.42,2.36,1.73,3.61.44,1.73.81,3.22-.05,4.11-.32.34-.84.59-1.35.59Z"/>
        </g>
        <g>
          <path class="cls-4" d="M422.48,100.42c.39-2.35,1.67-3.9,3.07-3.85.83.03,1.54.62,1.92.93,1.17.95,1.63,2.19,2.12,3.55.61,1.69,1.15,3.19.46,4.06-.33.42-1.01.79-1.64.55-1.55-.59-1.97-4.51-2.54-4.48-.18,0-.19.39-.61.59-.28.13-.57.1-.76.06"/>
          <path class="cls-4" d="M428.83,106.09c-.18,0-.36-.03-.54-.1-1.1-.41-1.63-2.03-2.07-3.33-.1-.31-.24-.71-.35-.96-.1.13-.24.28-.47.38-.29.13-.62.16-.98.09-.2-.04-.32-.23-.28-.42.04-.2.23-.32.42-.28.21.04.39.03.53-.04.14-.07.2-.17.27-.28.08-.13.21-.34.48-.35h.03c.48,0,.67.58,1.02,1.63.36,1.09.86,2.59,1.64,2.88.44.17.96-.1,1.23-.44.56-.71.04-2.17-.52-3.7-.46-1.29-.9-2.5-2.01-3.41-.35-.29-1-.82-1.71-.84-1.19-.02-2.35,1.45-2.7,3.55-.03.2-.22.33-.41.3-.2-.03-.33-.22-.3-.41.42-2.5,1.81-4.19,3.44-4.15.95.04,1.75.69,2.14,1.01,1.27,1.04,1.76,2.4,2.23,3.71.65,1.82,1.21,3.38.41,4.4-.33.42-.91.76-1.51.76Z"/>
        </g>
        <g>
          <path class="cls-6" d="M422.39,101.08c.03-.2.06-.4.09-.6.03-.17.06-.34.09-.51"/>
          <path class="cls-4" d="M422.39,101.44s-.03,0-.05,0c-.2-.03-.33-.21-.31-.41.03-.2.06-.4.09-.61.03-.18.06-.35.09-.52.04-.19.22-.33.42-.28.19.04.32.23.28.42-.03.16-.06.33-.09.5-.03.2-.06.4-.09.59-.02.18-.18.31-.36.31Z"/>
        </g>
        <g>
          <path class="cls-4" d="M482.34,120.11c3.01,6.73,6.33,14.17,14.43,17.75,1.37.6,10.24,4.36,18.81-.06,9.62-4.96,15.16-18.3,10.57-25.88-3.53-5.81-11.83-6.28-18.4-6.65-11-.62-25.58,2.79-26.82,9.57-.1.56-.21,1.64,1.42,5.27Z"/>
          <path class="cls-4" d="M506.56,140.29c-4.65,0-8.45-1.45-9.94-2.1-8.23-3.63-11.62-11.23-14.61-17.93h0c-1.74-3.89-1.54-4.97-1.44-5.49,1.35-7.36,16.66-10.45,27.2-9.86,6.71.38,15.07.85,18.69,6.82,1.87,3.09,2.21,7.26.94,11.74-1.76,6.24-6.23,11.85-11.65,14.65-3.15,1.62-6.33,2.17-9.19,2.17ZM482.67,119.96c2.94,6.58,6.27,14.04,14.25,17.56,2.32,1.03,10.53,4.06,18.5-.05,5.25-2.71,9.58-8.15,11.29-14.2,1.21-4.29.9-8.26-.86-11.17-3.43-5.65-11.57-6.11-18.11-6.48-11.59-.65-25.3,3-26.45,9.27-.08.41-.25,1.38,1.39,5.06h0Z"/>
        </g>
        <g>
          <path class="cls-4" d="M499.09,122.12c2.45-.39,5.19-1.01,8.11-2,7.67-2.62,13.27-6.68,16.87-9.85,1.17-5.04.4-7.77-1.03-9.28-6.07-6.4-28.13,4.9-42.58,13.29,3,1.7,6.49,3.44,10.45,5.03,2.88,1.16,5.63,2.08,8.17,2.82Z"/>
          <path class="cls-4" d="M499.07,122.49l-.08-.02c-2.77-.8-5.53-1.76-8.21-2.83-3.59-1.44-7.12-3.14-10.49-5.05l-.55-.31.54-.32c23.78-13.81,38.25-18.26,43.02-13.22,1.78,1.88,2.16,5.12,1.12,9.61l-.03.11-.09.08c-5.07,4.47-10.78,7.81-16.99,9.92-2.65.9-5.4,1.58-8.17,2.02h-.08ZM481.19,114.27c3.18,1.77,6.49,3.35,9.86,4.7,2.63,1.06,5.34,1.99,8.06,2.78,2.71-.43,5.39-1.1,7.98-1.98,6.08-2.07,11.69-5.34,16.66-9.7.95-4.19.63-7.16-.97-8.84-4.41-4.66-18.78-.15-41.59,13.03Z"/>
        </g>
        <g>
          <path class="cls-4" d="M500.15,123.54c-.45-.07-.95.26-.95.52.01.39,1.19.74,1.49.52.25-.19.07-.95-.54-1.04Z"/>
          <path class="cls-4" d="M500.39,125.01c-.33,0-.7-.11-.94-.23-.49-.23-.6-.51-.6-.71,0-.2.09-.39.28-.56.29-.25.71-.38,1.08-.33h0c.44.07.81.4.92.85.09.34,0,.66-.22.83-.14.1-.32.14-.52.14ZM499.6,124.05c.17.13.63.27.84.25,0-.05-.02-.13-.07-.21-.05-.07-.13-.17-.27-.19h0c-.2-.03-.4.07-.49.15Z"/>
        </g>
        <g>
          <path class="cls-4" d="M500.94,127.43c-.45-.07-.95.26-.95.52.01.39,1.19.74,1.49.52.25-.19.07-.95-.54-1.04Z"/>
          <path class="cls-4" d="M501.18,128.9c-.33,0-.7-.11-.94-.23-.49-.23-.59-.51-.6-.71,0-.2.09-.39.28-.56.29-.25.71-.38,1.08-.33h0c.44.07.81.4.92.85.09.34,0,.66-.22.83-.14.1-.32.14-.52.14ZM500.4,127.94c.17.13.63.27.84.25,0-.05-.02-.13-.07-.21-.05-.07-.13-.17-.28-.19h0c-.2-.03-.4.07-.49.15Z"/>
        </g>
        <g>
          <path class="cls-4" d="M502.36,131.28c-.45-.07-.95.26-.95.52.01.39,1.19.74,1.49.52.25-.19.07-.95-.54-1.04Z"/>
          <path class="cls-4" d="M502.6,132.75c-.33,0-.7-.11-.94-.23-.49-.23-.6-.51-.6-.71,0-.2.09-.39.28-.56.29-.26.71-.38,1.08-.33h0c.44.07.81.4.92.85.09.34,0,.66-.22.83-.14.1-.32.14-.52.14ZM501.81,131.79c.17.13.63.27.84.25,0-.05-.02-.13-.07-.21-.05-.07-.13-.17-.27-.19h0c-.2-.03-.4.07-.49.15Z"/>
        </g>
        <g>
          <path class="cls-4" d="M518.34,60.64c-11.93-6.8-26.35-2.63-34.73,3.47-6.41,4.67-9.36,10.53-10.65,13.16-1.19,2.44-7.29,14.88-2.03,26.6,1.82,4.06,4.33,6.52,4.92,7.08,5.37,5.12,11.96,5.97,15.85,6.41,5.19.59,27.09,3.09,37.13-12.61,8.9-13.92,4.33-35.65-10.5-44.11Z"/>
          <path class="cls-4" d="M499.85,118.21c-2.53,0-5.25-.15-8.18-.49-3.67-.42-10.5-1.2-16.06-6.51-.93-.89-3.28-3.36-5-7.19-3.44-7.66-2.72-17.21,2.03-26.91,1.14-2.32,4.15-8.48,10.76-13.29,9.01-6.56,23.37-10.19,35.12-3.49h0c6.9,3.94,12.07,11.1,14.18,19.65,2.19,8.89.9,17.99-3.56,24.96-4.03,6.31-12.33,13.26-29.3,13.26ZM504.63,57.47c-7.7,0-15.27,2.9-20.8,6.93-6.47,4.71-9.42,10.75-10.54,13.03-4.65,9.5-5.37,18.84-2.02,26.3,1.67,3.71,3.94,6.11,4.84,6.96,5.39,5.15,12.06,5.91,15.65,6.31,22.21,2.54,32.26-5.37,36.79-12.45,4.35-6.8,5.61-15.7,3.46-24.4-2.06-8.36-7.11-15.36-13.84-19.2-4.29-2.45-8.94-3.48-13.54-3.48Z"/>
        </g>
        <g>
          <path class="cls-4" d="M489.07,107.08c.39,1.6-2.34,4.15-5.24,4.53-1.58.21-4.29-.08-5.35-2.07-.55-1.02-.69-2.55.02-3.57,1.96-2.82,9.99-1.32,10.57,1.1Z"/>
          <path class="cls-4" d="M482.93,112.03c-1.61,0-3.79-.49-4.77-2.31-.57-1.05-.79-2.74.04-3.95,1.24-1.79,4.4-1.91,6.72-1.47,1.86.35,4.15,1.26,4.49,2.7h0c.14.59-.04,1.28-.53,2-1.03,1.49-3.08,2.72-5.01,2.97-.28.04-.6.06-.95.06ZM482.68,104.81c-1.65,0-3.2.39-3.88,1.38-.63.92-.48,2.3,0,3.19,1.01,1.88,3.7,2.05,4.99,1.88,1.93-.26,3.73-1.54,4.51-2.67.37-.54.52-1.04.43-1.42-.21-.88-1.82-1.77-3.93-2.16-.68-.13-1.41-.2-2.12-.2Z"/>
        </g>
        <g>
          <path class="cls-4" d="M488.34,105.26c.33,1.35-1.98,3.5-4.42,3.83-1.34.18-3.62-.07-4.52-1.75-.46-.86-.58-2.15.02-3.02,1.65-2.38,8.43-1.12,8.93.93Z"/>
          <path class="cls-4" d="M483.16,109.5c-1.38,0-3.24-.42-4.08-1.98-.49-.9-.68-2.35.04-3.39,1.06-1.53,3.75-1.64,5.73-1.27,1.66.31,3.54,1.09,3.84,2.32h0c.12.52-.04,1.12-.46,1.73-.87,1.28-2.63,2.32-4.27,2.54-.24.03-.51.05-.81.05ZM482.94,103.4c-1.37,0-2.66.32-3.23,1.14-.52.75-.4,1.9,0,2.64.84,1.56,3.09,1.71,4.16,1.56,1.62-.21,3.12-1.28,3.77-2.23.3-.44.43-.85.35-1.16h0c-.17-.72-1.52-1.45-3.27-1.78-.58-.11-1.19-.17-1.78-.17Z"/>
        </g>
        <g>
          <path class="cls-4" d="M482.86,102.97c1.31.88,1.38,3.36,0,4.37-.89.66-2.33.64-3.17-.17-1.12-1.07-.79-3.13.43-4.03.76-.56,1.93-.71,2.74-.17Z"/>
          <path class="cls-4" d="M481.38,108.17c-.72,0-1.43-.25-1.94-.74-.56-.54-.84-1.32-.79-2.19.06-.97.53-1.86,1.25-2.39.94-.7,2.27-.77,3.16-.18.71.47,1.15,1.36,1.17,2.39.02,1.07-.41,2.03-1.16,2.58-.49.36-1.09.53-1.7.53ZM481.67,103c-.46,0-.95.15-1.34.44-.54.4-.91,1.11-.96,1.86-.04.65.16,1.23.57,1.62.68.65,1.92.72,2.71.14.56-.41.88-1.15.86-1.98-.02-.77-.34-1.47-.85-1.8h0c-.28-.18-.63-.28-.99-.28Z"/>
        </g>
        <g>
          <path class="cls-4" d="M487.09,105.54c.09.28.5,1.54-.17,2.24-.7.74-2.24.48-3.07-.25-1.41-1.24-1.06-4.1,0-4.57.95-.42,2.72.98,3.24,2.57Z"/>
          <path class="cls-4" d="M485.73,108.58c-.75,0-1.56-.3-2.11-.78-.98-.86-1.16-2.33-1-3.32.14-.92.55-1.61,1.09-1.85.38-.17.86-.14,1.37.09,1.02.46,1.99,1.57,2.36,2.7.47,1.44.12,2.21-.25,2.6-.36.38-.9.55-1.46.55ZM484.24,103.25c-.09,0-.17.01-.24.04-.31.14-.57.65-.67,1.3-.12.81,0,2,.77,2.67.7.61,2.02.86,2.57.27.33-.35.36-1.02.08-1.88h0c-.34-1.06-1.25-1.94-1.97-2.26-.2-.09-.39-.14-.55-.14Z"/>
        </g>
        <g>
          <path class="cls-4" d="M469.51,90.38c-.08.17-.42.97-.07,1.76,1.39,3.16,12.15,2.61,13.11-.42.19-.6-.05-1.15-.14-1.34-1.53-3.3-11.34-3.38-12.89,0Z"/>
          <path class="cls-4" d="M475.46,94.62c-2.63,0-5.59-.6-6.35-2.34-.38-.87-.08-1.73.07-2.06h0c.92-2,4.19-2.71,6.71-2.72h.02c2.57,0,5.89.71,6.82,2.72.26.57.31,1.1.16,1.6-.58,1.82-3.86,2.63-6.5,2.77-.3.02-.62.03-.93.03ZM475.92,88.23h-.02c-3,0-5.43.93-6.06,2.3h0c-.09.19-.34.84-.07,1.47.57,1.29,3.27,2.07,6.59,1.89,3.07-.17,5.48-1.1,5.85-2.27.15-.48-.06-.93-.12-1.08-.64-1.38-3.11-2.3-6.16-2.3Z"/>
        </g>
        <g>
          <path class="cls-3" d="M475.18,94.62c-2.63,0-5.59-.6-6.35-2.34-.38-.87-.08-1.73.07-2.06h0c.92-2,4.19-2.71,6.71-2.72h.02c2.57,0,5.89.71,6.82,2.72.26.57.31,1.1.16,1.6-.58,1.82-3.86,2.63-6.5,2.77-.3.02-.62.03-.93.03ZM475.63,88.23h-.02c-3,0-5.43.93-6.06,2.3h0c-.09.19-.34.84-.07,1.47.57,1.29,3.27,2.07,6.59,1.89,3.07-.17,5.48-1.1,5.85-2.27.15-.48-.06-.93-.12-1.08-.64-1.38-3.11-2.3-6.16-2.3Z"/>
          <g class="cls-10">
            <g>
              <path class="cls-4" d="M473.93,87.07c1.91.17,3.89,1.78,3.8,3.8-.09,2.12-2.39,3.59-4.44,3.45-1.98-.13-4.01-1.79-3.91-3.83.1-2.13,2.47-3.61,4.55-3.42Z"/>
              <path class="cls-4" d="M473.57,94.7c-.1,0-.2,0-.3,0-2.1-.14-4.36-1.9-4.25-4.21.05-.96.51-1.87,1.32-2.57.98-.85,2.36-1.3,3.62-1.19,2.07.19,4.23,1.91,4.13,4.18-.04.95-.49,1.86-1.27,2.56-.89.79-2.08,1.25-3.25,1.25ZM473.57,87.41c-.98,0-2.01.38-2.76,1.03-.46.4-1.03,1.09-1.07,2.06-.09,1.84,1.82,3.34,3.58,3.46,1.05.08,2.21-.33,3.02-1.06.45-.4.99-1.09,1.04-2.05.08-1.83-1.77-3.28-3.48-3.43h0c-.11,0-.22-.01-.33-.01Z"/>
            </g>
          </g>
          <path class="cls-6" d="M475.18,94.62c-2.63,0-5.59-.6-6.35-2.34-.38-.87-.08-1.73.07-2.06h0c.92-2,4.19-2.71,6.71-2.72h.02c2.57,0,5.89.71,6.82,2.72.26.57.31,1.1.16,1.6-.58,1.82-3.86,2.63-6.5,2.77-.3.02-.62.03-.93.03ZM475.63,88.23h-.02c-3,0-5.43.93-6.06,2.3h0c-.09.19-.34.84-.07,1.47.57,1.29,3.27,2.07,6.59,1.89,3.07-.17,5.48-1.1,5.85-2.27.15-.48-.06-.93-.12-1.08-.64-1.38-3.11-2.3-6.16-2.3Z"/>
        </g>
        <g>
          <path class="cls-4" d="M489.22,94.77c4.38,1.62,4.41,8.33,6.41,8.24,1.54-.07,3.27-4.1,2.07-6.3-.73-1.34-2.38-1.71-2.33-1.83.07-.15,2.75.19,4.44,2.18,1.55,1.84,1.82,4.55,1.03,6.44-1.94,4.66-11.1,6.45-15.54,2.64-1.46-1.25-2.14-2.88-2.47-4.02-1.3,3.31-4.17,5.58-7.4,5.85-.39.03-4.47.3-6.72-2.79-2.17-2.97-1.5-7.51.87-9.4,1.86-1.48,4.59-1.19,4.65-.92.06.28-2.62.44-3.38,2.11-.77,1.69.49,4.8,2.3,5.25,2.52.63,3.89-4.44,10.01-6.76,1.81-.69,3.93-1.49,6.06-.7Z"/>
          <path class="cls-4" d="M491.63,108.59c-2.56,0-4.92-.75-6.57-2.16-.99-.85-1.75-1.96-2.28-3.3-1.48,2.95-4.27,4.97-7.32,5.22-.47.04-4.7.29-7.04-2.93-2.17-2.98-1.71-7.79.94-9.9,1.72-1.37,4.12-1.33,4.83-1.08.08.03.33.12.39.36.1.41-.32.54-.85.7-.79.24-2.1.64-2.56,1.64-.35.76-.23,1.94.28,3.02.44.92,1.11,1.57,1.77,1.73.99.25,1.82-.62,3.08-1.93,1.44-1.5,3.41-3.56,6.71-4.82,1.81-.69,4.05-1.54,6.31-.71h0c2.66.98,3.81,3.75,4.65,5.78.54,1.31,1.01,2.45,1.6,2.45,0,0,.01,0,.02,0,.4-.02.92-.49,1.34-1.24.73-1.3,1.12-3.27.43-4.53-.47-.86-1.38-1.28-1.87-1.5-.27-.12-.63-.29-.47-.65.04-.09.14-.21.35-.23.49-.07,3.03.36,4.7,2.34,1.55,1.83,1.99,4.63,1.09,6.81-.88,2.12-3.25,3.82-6.35,4.56-1.08.26-2.15.38-3.2.38ZM482.88,101.02l.3,1.01c.47,1.61,1.26,2.9,2.35,3.84,2.14,1.83,5.64,2.45,9.13,1.62,2.87-.68,5.06-2.23,5.85-4.13.68-1.64.57-4.25-.97-6.07-.65-.77-1.46-1.28-2.19-1.61.25.23.48.51.67.85.85,1.56.37,3.8-.44,5.23-.56.99-1.27,1.58-1.94,1.61-1.09.06-1.64-1.25-2.32-2.89-.83-2.01-1.87-4.5-4.23-5.38-2-.74-4.02.03-5.8.7-3.15,1.2-4.98,3.11-6.45,4.64-1.33,1.39-2.38,2.48-3.77,2.14-.88-.22-1.7-.99-2.25-2.12-.62-1.28-.73-2.67-.29-3.63.46-1.01,1.51-1.52,2.35-1.82-.88.04-2.09.28-3.06,1.06-2.14,1.7-2.96,5.96-.81,8.91,2.12,2.9,5.97,2.67,6.4,2.64,3.07-.25,5.85-2.46,7.09-5.62l.39-.98Z"/>
        </g>
        <g>
          <path class="cls-4" d="M487.05,88.96c-6.69,3.45-11.6,7.15-14.82,9.88-9.62,8.16-10.72,13.19-10.92,15.35-.1,1.09-.28,3.38,1.16,4.81,1.72,1.71,4.7,1.16,4.88,1.12,4.71-.95,4.21-6.93,11.57-16.17,2.96-3.71,5.98-6.45,9.17-8.59,1.26-.85,2.36-1.48,3.13-1.9"/>
          <path class="cls-4" d="M466.04,120.59c-1.13,0-2.71-.23-3.82-1.34-1.59-1.58-1.36-4.05-1.26-5.1.42-4.48,4.14-9.72,11.05-15.59,4.49-3.81,9.5-7.15,14.89-9.93.18-.09.39-.02.48.15.09.18.02.39-.16.49-5.33,2.75-10.3,6.06-14.75,9.83-6.76,5.74-10.39,10.82-10.8,15.1-.09.95-.3,3.18,1.06,4.52,1.6,1.59,4.44,1.05,4.56,1.02,2.42-.49,3.39-2.44,4.98-5.67,1.29-2.61,3.06-6.19,6.38-10.37,2.82-3.54,5.84-6.37,9.25-8.67,1.02-.69,2.09-1.34,3.16-1.92.17-.09.39-.03.49.14.09.18.03.39-.14.49-1.05.57-2.1,1.21-3.1,1.88-3.35,2.26-6.32,5.04-9.09,8.52-3.27,4.11-4.95,7.51-6.3,10.24-1.64,3.31-2.72,5.5-5.49,6.06-.05.01-.62.12-1.39.12Z"/>
        </g>
        <g>
          <path class="cls-4" d="M492.82,90c-.08.17-.42.97-.07,1.76,1.39,3.16,12.15,2.61,13.11-.42.19-.6-.05-1.15-.14-1.34-1.53-3.3-11.34-3.38-12.89,0Z"/>
          <path class="cls-4" d="M498.78,94.25c-2.63,0-5.59-.6-6.35-2.34-.38-.87-.08-1.73.07-2.06h0c.92-2,4.19-2.71,6.71-2.72h.02c2.57,0,5.89.71,6.82,2.72.26.57.31,1.1.16,1.6-.58,1.82-3.86,2.63-6.49,2.77-.3.02-.62.02-.93.02ZM499.23,87.86h-.02c-3,0-5.43.93-6.06,2.3h0c-.09.19-.34.84-.07,1.47.57,1.29,3.28,2.07,6.59,1.89,3.07-.17,5.48-1.1,5.85-2.27.15-.48-.06-.93-.12-1.08-.64-1.38-3.11-2.3-6.16-2.3Z"/>
        </g>
        <g>
          <path class="cls-3" d="M498.49,94.25c-2.63,0-5.59-.6-6.35-2.34-.38-.87-.08-1.73.07-2.06h0c.92-2,4.19-2.71,6.71-2.72h.02c2.57,0,5.89.71,6.82,2.72.26.57.31,1.1.16,1.6-.58,1.82-3.86,2.63-6.49,2.77-.3.02-.62.02-.93.02ZM498.95,87.86h-.02c-3,0-5.43.93-6.06,2.3h0c-.09.19-.34.84-.07,1.47.57,1.29,3.28,2.07,6.59,1.89,3.07-.17,5.48-1.1,5.85-2.27.15-.48-.06-.93-.12-1.08-.64-1.38-3.11-2.3-6.16-2.3Z"/>
          <g class="cls-7">
            <g>
              <path class="cls-4" d="M496.38,86.62c1.91.17,3.89,1.78,3.8,3.8-.09,2.12-2.39,3.59-4.44,3.45-1.98-.13-4.01-1.79-3.91-3.83.1-2.13,2.47-3.61,4.55-3.42Z"/>
              <path class="cls-4" d="M496.01,94.25c-.1,0-.2,0-.3,0-2.1-.14-4.36-1.9-4.25-4.21.05-.96.51-1.87,1.32-2.57.98-.85,2.36-1.31,3.62-1.19,2.07.19,4.23,1.91,4.13,4.18-.04.95-.49,1.86-1.27,2.56-.89.79-2.08,1.25-3.25,1.25ZM496.01,86.97c-.98,0-2.01.38-2.75,1.03-.46.4-1.03,1.09-1.07,2.06-.09,1.84,1.82,3.34,3.58,3.46,1.05.07,2.21-.33,3.02-1.06.45-.4.99-1.09,1.04-2.05.08-1.83-1.77-3.28-3.48-3.43h0c-.11,0-.22-.01-.33-.01Z"/>
            </g>
          </g>
          <path class="cls-6" d="M498.49,94.25c-2.63,0-5.59-.6-6.35-2.34-.38-.87-.08-1.73.07-2.06h0c.92-2,4.19-2.71,6.71-2.72h.02c2.57,0,5.89.71,6.82,2.72.26.57.31,1.1.16,1.6-.58,1.82-3.86,2.63-6.49,2.77-.3.02-.62.02-.93.02ZM498.95,87.86h-.02c-3,0-5.43.93-6.06,2.3h0c-.09.19-.34.84-.07,1.47.57,1.29,3.28,2.07,6.59,1.89,3.07-.17,5.48-1.1,5.85-2.27.15-.48-.06-.93-.12-1.08-.64-1.38-3.11-2.3-6.16-2.3Z"/>
        </g>
        <g>
          <path class="cls-4" d="M532.67,91.79c.62-.48,2.2-1.54,3.76-1.11,2.57.71,3.65,5.1,2.58,7.78-1.27,3.19-6.07,5.16-11.48,3.67"/>
          <path class="cls-4" d="M531.17,103c-1.18,0-2.43-.16-3.74-.52-.19-.05-.3-.25-.25-.44.05-.19.25-.3.44-.25,5.46,1.49,9.91-.59,11.05-3.46.62-1.54.48-3.76-.33-5.39-.35-.71-.99-1.62-2.01-1.91-1.32-.37-2.73.5-3.44,1.05-.16.12-.38.09-.5-.07-.12-.16-.09-.38.07-.51.83-.63,2.45-1.62,4.07-1.17,1.01.28,1.87,1.07,2.47,2.28.89,1.8,1.04,4.26.35,5.98-.98,2.46-4.09,4.41-8.18,4.41Z"/>
        </g>
        <g>
          <path class="cls-4" d="M531.85,93.78c-.25,1.27-.33,2.76.52,3.52.73.65,1.81.47,1.86.82.05.38-1.12,1.1-1.93.78-.69-.28-.47-1.12-1.22-1.74-.79-.65-2.17-.65-3.19-.05-1.28.75-1.48,2.15-1.5,2.33"/>
          <path class="cls-4" d="M526.37,99.8s-.03,0-.05,0c-.2-.03-.34-.21-.31-.4.04-.29.29-1.77,1.68-2.59,1.16-.68,2.71-.65,3.6.08.44.36.6.78.73,1.12.13.33.19.49.4.57.44.18,1.07-.11,1.32-.33-.06-.01-.12-.03-.18-.04-.41-.09-.98-.21-1.45-.63-.78-.7-1-2-.63-3.86.04-.19.22-.33.42-.28.19.04.32.23.28.42-.31,1.59-.18,2.66.4,3.18.33.29.76.38,1.12.46.38.08.81.17.86.59.03.26-.12.53-.44.77-.48.37-1.31.65-1.98.38-.5-.2-.66-.61-.8-.98-.11-.3-.22-.58-.51-.82-.66-.54-1.88-.55-2.78-.02-1.1.65-1.3,1.83-1.33,2.06-.02.18-.18.31-.36.31Z"/>
        </g>
        <path class="cls-4" d="M507.94,86.68c-.4,0-.98-.24-1.82-.59-1.71-.7-4.57-1.88-8.78-2.42-1.82-.23-3.32-.27-4.42-.3-1.7-.04-2.55-.07-2.72-.75h0c-.07-.28.03-.59.29-.94.88-1.16,3.79-2.81,6.95-2.89,5.04-.15,9.49,3.96,10.76,6.18.37.65.46,1.12.27,1.42-.12.19-.29.28-.53.28ZM490.9,82.46c.16.16,1.16.18,2.04.2,1.11.03,2.64.07,4.49.31,4.31.55,7.22,1.75,8.97,2.46.59.24,1.2.49,1.46.53-.04-.21-.32-.85-1.11-1.78-1.87-2.21-5.42-4.76-9.28-4.65-2.83.07-5.51,1.53-6.35,2.55-.17.21-.21.34-.21.38Z"/>
        <path class="cls-4" d="M470.38,85.22c-.11,0-.21-.04-.31-.13-.15-.13-.31-.42-.03-1.31.56-1.78,2.43-4.57,5.24-4.94,2.37-.3,4.51,1.15,5.37,2.21.28.34.58.84.44,1.26h0c-.2.57-.89.52-1.94.45-1.42-.1-3.57-.24-5.93.82-.93.42-1.57.89-2,1.2-.34.24-.61.44-.85.44ZM475.91,79.53c-.18,0-.36.01-.54.03-1.85.24-3.11,1.7-3.7,2.55-.63.92-.94,1.74-1.04,2.19.05-.04.1-.08.16-.11.45-.33,1.13-.82,2.12-1.27,2.52-1.14,4.87-.98,6.27-.88.46.03,1.03.07,1.21,0-.02-.11-.14-.4-.59-.84-.88-.88-2.38-1.68-3.91-1.68ZM480.75,82.2h0,0ZM480.75,82.2h0,0Z"/>
        <g>
          <path class="cls-4" d="M521.01,69.51c-2.8-.87-7.62-1.24-9.37,1.34-1.58,2.32-.28,6.42,1.97,8.74,3.34,3.43,7.76,1.91,8.74,4.51.81,2.15-1.3,5.62-3.62,6.06-.73.14-2.01.08-2.58-.8-.5-.77-.26-1.9.28-2.54.72-.84,1.89-.74,1.88-.89-.02-.2-2.09-.78-3.66.23-1.69,1.09-2.28,3.67-1.39,5.4,1.04,2.02,3.75,2.2,5.19,2.3,2.33.16,3.26-.56,6.25-1.22,5.21-1.15,6.49.15,7.68-.93,3.4-3.09-1.3-19.08-11.36-22.21Z"/>
          <path class="cls-4" d="M519.09,94.25c-.21,0-.43,0-.66-.02-1.52-.1-4.35-.3-5.49-2.5-1.01-1.96-.3-4.7,1.51-5.87,1.53-.99,3.39-.61,3.9-.36.07.04.3.15.32.39.03.37-.34.44-.59.49-.36.07-.97.19-1.38.67-.44.52-.67,1.47-.25,2.1.49.75,1.66.75,2.21.64,1.03-.19,2.11-1.1,2.83-2.37.65-1.15.84-2.35.52-3.21-.4-1.08-1.53-1.33-3.08-1.68-1.69-.38-3.79-.86-5.58-2.7-2.35-2.42-3.72-6.68-2.01-9.19,1.86-2.74,6.87-2.38,9.78-1.48h0c6.54,2.03,10.96,9.45,12.3,15.48.76,3.45.47,6.19-.8,7.33-.67.61-1.37.58-2.43.54-1.09-.05-2.73-.12-5.41.47-1.01.22-1.78.45-2.46.65-1.14.34-2,.6-3.23.6ZM516.76,85.94c-.59,0-1.3.12-1.92.52-1.49.96-2.09,3.31-1.26,4.93.95,1.84,3.51,2.01,4.9,2.11,1.46.1,2.33-.16,3.63-.55.69-.21,1.48-.44,2.51-.67,2.77-.61,4.47-.54,5.6-.49,1.04.05,1.48.05,1.91-.35,1.05-.96,1.27-3.5.58-6.64-1.29-5.84-5.54-13.01-11.81-14.95h0c-2.7-.84-7.32-1.22-8.97,1.2-1.49,2.18-.17,6.12,1.93,8.28,1.64,1.69,3.55,2.12,5.22,2.5,1.64.37,3.05.69,3.59,2.13.39,1.05.18,2.48-.57,3.81-.81,1.45-2.09,2.49-3.32,2.73-.77.15-2.26.11-2.95-.96-.6-.93-.32-2.24.31-2.97.26-.31.57-.5.87-.64-.08,0-.17,0-.26,0Z"/>
        </g>
        <path class="cls-3" d="M543.27,41.46c-1.1-1.34-1.95-2.25-2.77-2.96l.04-.05-.35-.21c-.5-.4-1-.73-1.54-1.03-15.93-8.82-29.69-10.23-29.75-10.23-1.13-.1-11.09-.89-21.89,1.33l-.02-.04-1.04.24c-.33.08-.66.18-.99.26-.55.14-1.05.27-1.44.38-.26.07-.51.14-.77.22-.01,0-.03,0-.04.01-.74.22-1.49.47-2.24.73-.42.15-.84.31-1.27.47-.34.13-.69.27-1.04.41-.53.22-1.07.44-1.6.68-.75.33-1.52.69-2.33,1.08l-1.19.57.54,1.2c1.55,3.48,2.62,6.92,3.24,10.47,0,.04.02.08.02.13.07.43.14.85.2,1.28.01.09.03.18.04.27.07.51.13,1.03.18,1.55,0,0,0,0,0,.01.33,3.44.26,7.03-.19,10.89-5.52-.45-11.98-.42-13.31-.41-3.64.04-6.47.14-8.07.2-1.53.06-2.86.11-4,.17-.56.04-1.11.08-1.67.12-.52.06-1.1.17-1.73.32-.54.13-1.05.29-1.52.47-.09.04-.18.07-.27.11-1.11.44-2.02.97-2.71,1.45-4.32,3.02-7.74,9.23-5.67,12.71,1.01,1.69,2.75,2.03,5.23,2.03,2.32,0,5.79-.33,11.04-.83,1.87-.18,3.98-.38,6.36-.6,1.92-.18,3.62-.32,5.12-.46.26-.02.49-.04.74-.06.57.84,1.33,1.65,2.44,2.42.92.63,1.71,1.03,2.72,1.37,3.15,1.07,7.38,1,11.89.93,1.36-.02,2.75-.04,4.13-.04,1.29,0,1.96.04,2.91.09,1.1.05,2.6.13,5.9.19,2.34.05,4.32.07,5.83.08.17.02.34.04.51.05l.75.08c.64.07,1.79.2,2.83.32l.92.11c.06,0,.13.02.19.03.52.08.94.11,1.18.13h.13s.02.01.03.02l.19.02c5.72.64,11.83,1.25,17.2,1.71,1.28.11,2.23.19,3.15.26l3.05.26s0,0,0,0h0l1.5.13-.03-.18c.57-.04,1.1-.11,1.56-.21.84-.18,1.53-.44,2.2-.7l.35-.13c.52-.2.87-.71.87-1.27,0-1.2,0-2.4.01-3.61v-.49c0-.47-.24-.92-.64-1.17-.86-.54-1.84-1.14-3.14-1.34-.63-.1-1.22-.08-1.78,0,0-.01,0-.02,0-.04.01-.67.02-1.34.03-2.01h0s.01-1.48.01-1.48c0-.36.01-.71.02-1.07v-.37c.01-.18.02-.37.03-.58.01-.16,0-.29-.01-.42,0-.14,0-.28,0-.42v-.07c.16-1.08.29-2.09.4-3.05.36-2.96.67-5.52,1.97-9.08,1.38-3.77,4.2-8.96,7.15-11.46l1.03-.86-.85-1.04Z"/>
        <path class="cls-4" d="M500.14,88.85c.76,1.24.62,2.77.05,3.85-.27.51-.6.86-.82,1.06-4.04-.15-6.86-1.21-7.05-2.58-.18-1.36,2.25-2.78,2.4-2.87,1.79-1.03,3.59-.79,4.18-.68.71.43,1.07.94,1.24,1.22Z"/>
        <path class="cls-4" d="M477.11,89.27c.76,1.24.62,2.77.05,3.85-.27.51-.6.86-.82,1.06-4.04-.15-6.86-1.21-7.05-2.58-.18-1.36,2.25-2.78,2.4-2.87,1.79-1.03,3.59-.79,4.18-.68.71.43,1.07.94,1.24,1.22Z"/>
        <path class="cls-4" d="M469.89,129.96l2.33,2.87s6.6-5.04,6.78-5.05.92-2.69.92-2.69l-3.04-.54s-4.94,3.4-4.94,3.46-2.05,1.96-2.05,1.96Z"/>
      </g>
      <path class="cls-1" d="M519.45,139.92c-6,2.45-13.18,5.8-22.16,3.68-11.39-2.68-17.93-12.1-18.85-13.65-.09-.15-.52-.89-1.16-1.87-1.75-2.66-2.29-2.78-3.61-4.73-2.61-3.86-2.5-6.34-2.47-7.02,0-.12.02-.22.03-.3.56-4.44,21.77-21.22,42.65-16.16,0,0,9.2,2.76,16.47,2.98,2.42.07,3.73.01,3.73.01,1.39-.06,2.27-.18,4.15-.22,0,0,.93-.02,1.83,0,1.39.03,3.55.15,6.42.62-2.97,1.14-6.89,3.22-8.76,7.16-2.51,5.29,7.93,18.8-18.28,29.49Z"/>
      <g>
        <g>
          <path class="cls-3" d="M483.11,103.49s-.01.02-.02.04c-.02-.04-.04-.09-.06-.13.03.03.05.06.08.09Z"/>
          <path class="cls-3" d="M483.07,106.7l-1.27-2.52c-.05-.1-.1-.21-.13-.32l-1.95-5.82,4.34,4.34c.06.06.12.12.17.2l.82,1.03-.77.76-1.21,2.33ZM484.37,102.86l-.48.25.52-.17s-.02-.05-.03-.08Z"/>
        </g>
        <g>
          <path class="cls-3" d="M483.64,104.57s-.04,0-.07,0c0-.06-.03-.13-.05-.19.04.06.09.13.12.2Z"/>
          <path class="cls-3" d="M485.97,106.01h-3.69s-.14-1.21-.14-1.21l-2.9-9.38,5.47,8.15c.08.11.15.23.21.36l1.04,2.08ZM483.81,103.14h.03s-.02,0-.03,0Z"/>
        </g>
        <rect class="cls-1" x="477.72" y="123.89" width="8.74" height="6.07"/>
        <g>
          <path class="cls-1" d="M425.25,116.72c-.32,1.14-.58,3.47,2.36,7.83,3.78,5.6,11.84,13.06,23.55,14.44,18.14,2.14,30.49-12.02,33.6-15.58,3.27-3.75,8.01-9.19,6.38-13.94-1.9-5.54-11.98-8.85-19.11-6.17-9.08,3.42-8.48,14.75-17.61,16.6-.52.1-5.94,1.13-10.1-1.86-3.44-2.47-2.83-5.4-5.81-6.86-4.28-2.11-11.93.81-13.27,5.53Z"/>
          <path class="cls-1" d="M454.8,139.57c-1.3,0-2.53-.08-3.68-.22-14.06-1.66-21.78-11.59-23.81-14.6-2.23-3.31-3.02-5.97-2.41-8.13h0c.62-2.2,2.56-4.16,5.33-5.39,2.98-1.33,6.22-1.47,8.45-.37,1.6.79,2.23,1.98,2.9,3.24.65,1.22,1.32,2.48,2.96,3.66,4,2.87,9.24,1.92,9.82,1.8,4.56-.92,6.62-4.31,8.79-7.89,2.09-3.44,4.25-6.99,8.76-8.69,4.08-1.54,9.52-1.22,13.86.82,2.93,1.38,4.96,3.35,5.72,5.56,1.7,4.96-3.2,10.58-6.45,14.3-11.11,12.74-22.07,15.92-30.23,15.92ZM425.6,116.82h0c-.55,1.95.21,4.41,2.32,7.53,1.99,2.94,9.54,12.67,23.3,14.29,8.19.96,20.61-.93,33.28-15.46,3.14-3.59,7.88-9.03,6.31-13.59-.69-2.02-2.59-3.85-5.34-5.14-4.17-1.96-9.39-2.28-13.3-.8-4.28,1.61-6.37,5.06-8.4,8.39-2.26,3.72-4.4,7.24-9.27,8.22-.62.12-6.14,1.13-10.38-1.92-1.78-1.27-2.52-2.67-3.17-3.9-.64-1.2-1.19-2.24-2.58-2.93-2.04-1.01-5.05-.86-7.84.38-2.57,1.14-4.36,2.94-4.93,4.93Z"/>
        </g>
        <g>
          <path class="cls-3" d="M428.06,123.37c.51-.1,1.02-.2,1.53-.3,1.85,2.41,7.72,9.4,17.87,11.77,16.58,3.87,29.33-8.14,30.3-9.09.72.08,1.44.16,2.16.24-9.15,9.82-22.32,14.02-34.1,10.66-10.29-2.93-15.96-10.6-17.76-13.29Z"/>
          <path class="cls-1" d="M454.14,138.17c-2.83,0-5.66-.38-8.41-1.17-9.63-2.74-15.38-9.59-17.96-13.43l-.3-.45,2.28-.44.14.18c2.62,3.42,8.41,9.48,17.67,11.64,16.54,3.86,29.43-8.47,29.97-8.99l.12-.12,3.04.34-.49.52c-7.18,7.71-16.64,11.93-26.05,11.93ZM428.67,123.62c2.65,3.82,8.21,10.12,17.25,12.69,11.45,3.26,24.12-.59,33.25-10.04l-1.27-.14c-1.89,1.8-14.29,12.84-30.51,9.06-9.32-2.17-15.19-8.2-17.94-11.72l-.78.15Z"/>
        </g>
        <g>
          <path class="cls-3" d="M433.48,101.83c-.74-1.34-2.34-2.83-3.81-2.86-1.48-.03-1.98,1.22-3.22,1.32-1.24.1-2.36-.73-3.48-.32-1.13.41.01,2.23-1.32,2.24-1.33.02-2.21-2.1-3.05-3.2-.62-.8-2.19-2.87-3.42-2.71-.39.05-.72.06-.81.68-.35,2.48,2.78,5.56,3.85,7.58,1.07,2.01,1.71,4.74,2.8,6.24,2.19,3.02,4.12,5.34,7.66,5.67,3.54.33,5.18-2.14,7.37-4.28.16-.15.02-.13.16-.24l-2.72-10.11Z"/>
          <path class="cls-1" d="M429.32,116.85c-.22,0-.44-.01-.68-.03-3.67-.35-5.68-2.73-7.92-5.82-.64-.89-1.12-2.14-1.63-3.47-.37-.97-.75-1.96-1.2-2.82-.31-.58-.81-1.27-1.33-2-1.32-1.83-2.82-3.91-2.56-5.79.12-.86.69-.93,1.06-.98,1.29-.16,2.64,1.33,3.78,2.81.25.32.47.67.7,1.04.61.96,1.29,2.05,2.08,2.05h0c.3,0,.36-.05.38-.7.02-.5.05-1.24.82-1.52.74-.27,1.45-.09,2.13.09.5.13.96.25,1.45.21.47-.04.83-.28,1.23-.57.52-.36,1.1-.77,2.02-.75,1.61.03,3.29,1.56,4.12,3.05.1.17.03.39-.14.49-.17.1-.39.03-.49-.14-.72-1.3-2.23-2.65-3.51-2.68-.67-.03-1.13.3-1.6.62-.45.31-.92.64-1.59.69-.6.05-1.15-.09-1.68-.23-.63-.16-1.18-.3-1.71-.11-.28.1-.32.35-.35.88-.02.51-.06,1.37-1.09,1.39h-.02c-1.18,0-1.98-1.27-2.69-2.39-.22-.35-.43-.69-.64-.95-.53-.69-2.08-2.71-3.09-2.58-.41.05-.45.06-.5.37-.23,1.6,1.18,3.55,2.43,5.27.54.75,1.06,1.46,1.39,2.09.47.89.86,1.91,1.23,2.9.49,1.28.95,2.49,1.54,3.3,2.2,3.03,4.03,5.21,7.4,5.53,2.8.26,4.3-1.31,6.05-3.13.34-.35.67-.7,1.03-1.05.04-.14.12-.22.2-.28.16-.12.39-.09.5.07.11.14.09.34-.03.46-.03.09-.08.16-.17.25-.35.34-.69.69-1.02,1.04-1.66,1.73-3.24,3.38-5.96,3.38Z"/>
        </g>
        <g>
          <path class="cls-3" d="M421.34,111.26c1.49,2.03,4.05,5.5,7.72,5.52,3.84.02,6.55-3.78,7.2-4.77.03-.04.05-.08.07-.11,0,0,.02-.03.04-.06,2.02-3.18,2.64-8.05,2.64-8.05.34-2.67-.08-2.3.3-4.63.47-2.91,1.23-4.16.64-4.67-.67-.58-2.74.07-3.66,1.43-.65.95-.25,1.55-1.1,4.37-.39,1.29-.7,1.95-1.1,1.97-.25.01-.47-.23-.63-.47l-12.12,9.48Z"/>
          <path class="cls-1" d="M429.08,117.14h-.03c-3.85-.02-6.45-3.55-8.01-5.67-.12-.16-.08-.39.08-.5.16-.12.39-.08.5.08,1.47,2,3.94,5.36,7.43,5.37h.02c3.56,0,6.16-3.53,6.88-4.61l.07-.11c1.99-3.14,2.62-7.91,2.62-7.96.16-1.29.15-1.84.13-2.36-.02-.55-.03-1.06.17-2.28.18-1.13.4-2,.58-2.69.22-.86.38-1.48.18-1.65-.13-.11-.4-.15-.73-.11-.76.1-1.83.64-2.4,1.47-.29.42-.33.75-.43,1.4-.09.63-.21,1.49-.63,2.88-.42,1.39-.78,2.2-1.43,2.22-.33,0-.65-.2-.94-.63-.11-.17-.07-.39.1-.5.17-.11.39-.07.5.1.18.26.28.28.31.31.03,0,.28-.06.77-1.71.4-1.34.52-2.17.6-2.77.1-.69.16-1.14.54-1.7.72-1.06,2.01-1.67,2.9-1.78.56-.07,1.01.02,1.3.28.53.46.35,1.18.04,2.37-.17.68-.39,1.53-.57,2.63-.18,1.15-.17,1.61-.16,2.14.02.53.03,1.13-.14,2.48-.03.2-.65,4.98-2.69,8.2l-.12.18c-.98,1.48-3.67,4.93-7.48,4.93Z"/>
        </g>
        <g>
          <path class="cls-3" d="M440.29,114.51c-.9-1.23-1.8-2.46-2.7-3.69-.92,1.09-2.9,3.16-6.14,4.46-2.74,1.1-5.16,1.16-6.54,1.09.62,1.05,1.23,2.11,1.85,3.16.32.54,2.58.58,3.15.61,1.48.08,2.96-.13,4.36-.63,3.77-1.34,5.57-4.23,6.02-5.01Z"/>
          <path class="cls-1" d="M430.51,120.52c-.21,0-.41,0-.62-.02h-.21c-1.71-.08-2.92-.24-3.24-.79l-2.18-3.74.66.03c2.17.1,4.38-.26,6.39-1.07,2.92-1.17,4.87-3.01,6-4.36l.3-.35,3.11,4.25-.12.2c-.65,1.12-2.56,3.87-6.21,5.17-1.24.44-2.55.66-3.87.66ZM425.55,116.75l1.52,2.6c.07.09.48.33,2.65.42h.21c1.45.09,2.87-.12,4.22-.6,3.23-1.14,5-3.5,5.71-4.65l-2.29-3.13c-1.21,1.36-3.17,3.09-5.98,4.21-1.9.76-3.99,1.14-6.03,1.14Z"/>
        </g>
        <g>
          <path class="cls-3" d="M427.48,117.58c-.29.09-.41.53-.28.76.2.34,1.04.27,1.1-.02.05-.25-.43-.85-.82-.73Z"/>
          <path class="cls-1" d="M427.75,118.92c-.34,0-.69-.12-.86-.4-.12-.21-.14-.51-.03-.77.1-.26.29-.44.52-.51h0c.28-.09.6.01.87.26.25.22.47.59.41.89-.05.27-.29.46-.66.52-.08.01-.16.02-.24.02ZM427.59,117.92s-.09.17-.07.23c.05.05.27.06.4.03-.07-.1-.25-.25-.33-.26ZM427.48,117.58h0,0Z"/>
        </g>
        <g>
          <path class="cls-3" d="M425.54,98.18c.59-2.13,1.93-3.45,3.22-3.29.76.1,1.38.69,1.7,1.01,1,.97,1.31,2.15,1.63,3.44.4,1.6.76,3.03.04,3.77-.35.36-1.01.64-1.58.37-1.39-.67-1.4-4.31-1.94-4.33-.17,0-.21.35-.63.5-.27.1-.54.05-.71,0l-1.74-1.46Z"/>
          <path class="cls-1" d="M431.05,103.95c-.22,0-.43-.04-.64-.14-.99-.48-1.34-2.01-1.62-3.25-.06-.28-.14-.63-.21-.86-.1.1-.25.22-.45.29-.28.1-.6.1-.94,0-.19-.06-.3-.26-.24-.45.06-.19.26-.3.45-.24.19.05.35.06.49.01.14-.05.2-.13.27-.23.09-.11.22-.28.49-.29.49.02.62.62.85,1.61.22.97.55,2.43,1.23,2.76.39.19.89-.01,1.16-.3.58-.6.23-1.97-.13-3.43-.31-1.22-.59-2.36-1.54-3.28-.3-.29-.85-.83-1.49-.91-1.12-.15-2.31,1.14-2.83,3.03-.05.19-.25.31-.44.25-.19-.05-.3-.25-.25-.44.63-2.28,2.11-3.75,3.61-3.55.88.11,1.55.76,1.91,1.11,1.09,1.07,1.42,2.36,1.73,3.61.44,1.73.81,3.22-.05,4.11-.32.34-.84.59-1.35.59Z"/>
        </g>
        <g>
          <path class="cls-3" d="M422.48,100.42c.39-2.35,1.67-3.9,3.07-3.85.83.03,1.54.62,1.92.93,1.17.95,1.63,2.19,2.12,3.55.61,1.69,1.15,3.19.46,4.06-.33.42-1.01.79-1.64.55-1.55-.59-1.97-4.51-2.54-4.48-.18,0-.19.39-.61.59-.28.13-.57.1-.76.06l-2.02-1.41Z"/>
          <path class="cls-1" d="M428.83,106.09c-.18,0-.36-.03-.54-.1-1.1-.41-1.63-2.03-2.07-3.33-.1-.31-.24-.71-.35-.96-.1.13-.24.28-.47.38-.29.13-.62.16-.98.09-.2-.04-.32-.23-.28-.42.04-.2.23-.32.42-.28.21.04.39.03.53-.04.14-.07.2-.17.27-.28.08-.13.21-.34.48-.35h.03c.48,0,.67.58,1.02,1.63.36,1.09.86,2.59,1.64,2.88.44.17.96-.1,1.23-.44.56-.71.04-2.17-.52-3.7-.46-1.29-.9-2.5-2.01-3.41-.35-.29-1-.82-1.71-.84-1.19-.02-2.35,1.45-2.7,3.55-.03.2-.22.33-.41.3-.2-.03-.33-.22-.3-.41.42-2.5,1.81-4.19,3.44-4.15.95.04,1.75.69,2.14,1.01,1.27,1.04,1.76,2.4,2.23,3.71.65,1.82,1.21,3.38.41,4.4-.33.42-.91.76-1.51.76Z"/>
        </g>
        <g>
          <path class="cls-5" d="M422.39,101.08c.03-.2.06-.4.09-.6.03-.17.06-.34.09-.51"/>
          <path class="cls-1" d="M422.39,101.44s-.03,0-.05,0c-.2-.03-.33-.21-.31-.41.03-.2.06-.4.09-.61.03-.18.06-.35.09-.52.04-.19.22-.33.42-.28.19.04.32.23.28.42-.03.16-.06.33-.09.5-.03.2-.06.4-.09.59-.02.18-.18.31-.36.31Z"/>
        </g>
        <g>
          <path class="cls-3" d="M482.34,120.11c3.01,6.73,6.33,14.17,14.43,17.75,1.37.6,10.24,4.36,18.81-.06,9.62-4.96,15.16-18.3,10.57-25.88-3.53-5.81-11.83-6.28-18.4-6.65-11-.62-25.58,2.79-26.82,9.57-.1.56-.21,1.64,1.42,5.27Z"/>
          <path class="cls-1" d="M506.56,140.29c-4.65,0-8.45-1.45-9.94-2.1-8.23-3.63-11.62-11.23-14.61-17.93h0c-1.74-3.89-1.54-4.97-1.44-5.49,1.35-7.36,16.66-10.45,27.2-9.86,6.71.38,15.07.85,18.69,6.82,1.87,3.09,2.21,7.26.94,11.74-1.76,6.24-6.23,11.85-11.65,14.65-3.15,1.62-6.33,2.17-9.19,2.17ZM482.67,119.96c2.94,6.58,6.27,14.04,14.25,17.56,2.32,1.03,10.53,4.06,18.5-.05,5.25-2.71,9.58-8.15,11.29-14.2,1.21-4.29.9-8.26-.86-11.17-3.43-5.65-11.57-6.11-18.11-6.48-11.59-.65-25.3,3-26.45,9.27-.08.41-.25,1.38,1.39,5.06h0Z"/>
        </g>
        <g>
          <path class="cls-1" d="M499.09,122.12c2.45-.39,5.19-1.01,8.11-2,7.67-2.62,13.27-6.68,16.87-9.85,1.17-5.04.4-7.77-1.03-9.28-6.07-6.4-28.13,4.9-42.58,13.29,3,1.7,6.49,3.44,10.45,5.03,2.88,1.16,5.63,2.08,8.17,2.82Z"/>
          <path class="cls-1" d="M499.07,122.49l-.08-.02c-2.77-.8-5.53-1.76-8.21-2.83-3.59-1.44-7.12-3.14-10.49-5.05l-.55-.31.54-.32c23.78-13.81,38.25-18.26,43.02-13.22,1.78,1.88,2.16,5.12,1.12,9.61l-.03.11-.09.08c-5.07,4.47-10.78,7.81-16.99,9.92-2.65.9-5.4,1.58-8.17,2.02h-.08ZM481.19,114.27c3.18,1.77,6.49,3.35,9.86,4.7,2.63,1.06,5.34,1.99,8.06,2.78,2.71-.43,5.39-1.1,7.98-1.98,6.08-2.07,11.69-5.34,16.66-9.7.95-4.19.63-7.16-.97-8.84-4.41-4.66-18.78-.15-41.59,13.03Z"/>
        </g>
        <g>
          <path class="cls-3" d="M500.15,123.54c-.45-.07-.95.26-.95.52.01.39,1.19.74,1.49.52.25-.19.07-.95-.54-1.04Z"/>
          <path class="cls-1" d="M500.39,125.01c-.33,0-.7-.11-.94-.23-.49-.23-.6-.51-.6-.71,0-.2.09-.39.28-.56.29-.25.71-.38,1.08-.33h0c.44.07.81.4.92.85.09.34,0,.66-.22.83-.14.1-.32.14-.52.14ZM499.6,124.05c.17.13.63.27.84.25,0-.05-.02-.13-.07-.21-.05-.07-.13-.17-.27-.19h0c-.2-.03-.4.07-.49.15Z"/>
        </g>
        <g>
          <path class="cls-3" d="M500.94,127.43c-.45-.07-.95.26-.95.52.01.39,1.19.74,1.49.52.25-.19.07-.95-.54-1.04Z"/>
          <path class="cls-1" d="M501.18,128.9c-.33,0-.7-.11-.94-.23-.49-.23-.59-.51-.6-.71,0-.2.09-.39.28-.56.29-.25.71-.38,1.08-.33h0c.44.07.81.4.92.85.09.34,0,.66-.22.83-.14.1-.32.14-.52.14ZM500.4,127.94c.17.13.63.27.84.25,0-.05-.02-.13-.07-.21-.05-.07-.13-.17-.28-.19h0c-.2-.03-.4.07-.49.15Z"/>
        </g>
        <g>
          <path class="cls-3" d="M502.36,131.28c-.45-.07-.95.26-.95.52.01.39,1.19.74,1.49.52.25-.19.07-.95-.54-1.04Z"/>
          <path class="cls-1" d="M502.6,132.75c-.33,0-.7-.11-.94-.23-.49-.23-.6-.51-.6-.71,0-.2.09-.39.28-.56.29-.26.71-.38,1.08-.33h0c.44.07.81.4.92.85.09.34,0,.66-.22.83-.14.1-.32.14-.52.14ZM501.81,131.79c.17.13.63.27.84.25,0-.05-.02-.13-.07-.21-.05-.07-.13-.17-.27-.19h0c-.2-.03-.4.07-.49.15Z"/>
        </g>
        <path class="cls-3" d="M488.4,135.49c-.07,0-.14-.02-.2-.06l-8.65-5.77.93-5.32-4.67-2.29,3.74-8.26c.08-.18.29-.26.48-.18.18.08.26.3.18.48l-3.45,7.62,4.53,2.22-.95,5.39,8.26,5.51c.17.11.21.33.1.5-.07.1-.18.16-.3.16Z"/>
        <path class="cls-3" d="M524.05,136.07c-.09,0-.19-.04-.26-.11-.14-.14-.13-.37.01-.51l7.18-6.85-1.86-5.14,4.08-2.97-4.71-6.91c-.11-.16-.07-.39.09-.5.16-.11.39-.07.5.09l5.11,7.49-4.21,3.06,1.84,5.08-7.52,7.18c-.07.07-.16.1-.25.1Z"/>
        <g>
          <path class="cls-3" d="M518.34,60.64c-11.93-6.8-26.35-2.63-34.73,3.47-6.41,4.67-9.36,10.53-10.65,13.16-1.19,2.44-7.29,14.88-2.03,26.6,1.82,4.06,4.33,6.52,4.92,7.08,5.37,5.12,11.96,5.97,15.85,6.41,5.19.59,27.09,3.09,37.13-12.61,8.9-13.92,4.33-35.65-10.5-44.11Z"/>
          <path class="cls-1" d="M499.85,118.21c-2.53,0-5.25-.15-8.18-.49-3.67-.42-10.5-1.2-16.06-6.51-.93-.89-3.28-3.36-5-7.19-3.44-7.66-2.72-17.21,2.03-26.91,1.14-2.32,4.15-8.48,10.76-13.29,9.01-6.56,23.37-10.19,35.12-3.49h0c6.9,3.94,12.07,11.1,14.18,19.65,2.19,8.89.9,17.99-3.56,24.96-4.03,6.31-12.33,13.26-29.3,13.26ZM504.63,57.47c-7.7,0-15.27,2.9-20.8,6.93-6.47,4.71-9.42,10.75-10.54,13.03-4.65,9.5-5.37,18.84-2.02,26.3,1.67,3.71,3.94,6.11,4.84,6.96,5.39,5.15,12.06,5.91,15.65,6.31,22.21,2.54,32.26-5.37,36.79-12.45,4.35-6.8,5.61-15.7,3.46-24.4-2.06-8.36-7.11-15.36-13.84-19.2-4.29-2.45-8.94-3.48-13.54-3.48Z"/>
        </g>
        <g>
          <path class="cls-3" d="M489.07,107.08c.39,1.6-2.34,4.15-5.24,4.53-1.58.21-4.29-.08-5.35-2.07-.55-1.02-.69-2.55.02-3.57,1.96-2.82,9.99-1.32,10.57,1.1Z"/>
          <path class="cls-1" d="M482.93,112.03c-1.61,0-3.79-.49-4.77-2.31-.57-1.05-.79-2.74.04-3.95,1.24-1.79,4.4-1.91,6.72-1.47,1.86.35,4.15,1.26,4.49,2.7h0c.14.59-.04,1.28-.53,2-1.03,1.49-3.08,2.72-5.01,2.97-.28.04-.6.06-.95.06ZM482.68,104.81c-1.65,0-3.2.39-3.88,1.38-.63.92-.48,2.3,0,3.19,1.01,1.88,3.7,2.05,4.99,1.88,1.93-.26,3.73-1.54,4.51-2.67.37-.54.52-1.04.43-1.42-.21-.88-1.82-1.77-3.93-2.16-.68-.13-1.41-.2-2.12-.2Z"/>
        </g>
        <g>
          <path class="cls-1" d="M488.34,105.26c.33,1.35-1.98,3.5-4.42,3.83-1.34.18-3.62-.07-4.52-1.75-.46-.86-.58-2.15.02-3.02,1.65-2.38,8.43-1.12,8.93.93Z"/>
          <path class="cls-1" d="M483.16,109.5c-1.38,0-3.24-.42-4.08-1.98-.49-.9-.68-2.35.04-3.39,1.06-1.53,3.75-1.64,5.73-1.27,1.66.31,3.54,1.09,3.84,2.32h0c.12.52-.04,1.12-.46,1.73-.87,1.28-2.63,2.32-4.27,2.54-.24.03-.51.05-.81.05ZM482.94,103.4c-1.37,0-2.66.32-3.23,1.14-.52.75-.4,1.9,0,2.64.84,1.56,3.09,1.71,4.16,1.56,1.62-.21,3.12-1.28,3.77-2.23.3-.44.43-.85.35-1.16h0c-.17-.72-1.52-1.45-3.27-1.78-.58-.11-1.19-.17-1.78-.17Z"/>
        </g>
        <g>
          <path class="cls-3" d="M482.86,102.97c1.31.88,1.38,3.36,0,4.37-.89.66-2.33.64-3.17-.17-1.12-1.07-.79-3.13.43-4.03.76-.56,1.93-.71,2.74-.17Z"/>
          <path class="cls-1" d="M481.38,108.17c-.72,0-1.43-.25-1.94-.74-.56-.54-.84-1.32-.79-2.19.06-.97.53-1.86,1.25-2.39.94-.7,2.27-.77,3.16-.18.71.47,1.15,1.36,1.17,2.39.02,1.07-.41,2.03-1.16,2.58-.49.36-1.09.53-1.7.53ZM481.67,103c-.46,0-.95.15-1.34.44-.54.4-.91,1.11-.96,1.86-.04.65.16,1.23.57,1.62.68.65,1.92.72,2.71.14.56-.41.88-1.15.86-1.98-.02-.77-.34-1.47-.85-1.8h0c-.28-.18-.63-.28-.99-.28Z"/>
        </g>
        <g>
          <path class="cls-3" d="M487.09,105.54c.09.28.5,1.54-.17,2.24-.7.74-2.24.48-3.07-.25-1.41-1.24-1.06-4.1,0-4.57.95-.42,2.72.98,3.24,2.57Z"/>
          <path class="cls-1" d="M485.73,108.58c-.75,0-1.56-.3-2.11-.78-.98-.86-1.16-2.33-1-3.32.14-.92.55-1.61,1.09-1.85.38-.17.86-.14,1.37.09,1.02.46,1.99,1.57,2.36,2.7.47,1.44.12,2.21-.25,2.6-.36.38-.9.55-1.46.55ZM484.24,103.25c-.09,0-.17.01-.24.04-.31.14-.57.65-.67,1.3-.12.81,0,2,.77,2.67.7.61,2.02.86,2.57.27.33-.35.36-1.02.08-1.88h0c-.34-1.06-1.25-1.94-1.97-2.26-.2-.09-.39-.14-.55-.14Z"/>
        </g>
        <g>
          <path class="cls-3" d="M469.51,90.38c-.08.17-.42.97-.07,1.76,1.39,3.16,12.15,2.61,13.11-.42.19-.6-.05-1.15-.14-1.34-1.53-3.3-11.34-3.38-12.89,0Z"/>
          <path class="cls-1" d="M475.46,94.62c-2.63,0-5.59-.6-6.35-2.34-.38-.87-.08-1.73.07-2.06h0c.92-2,4.19-2.71,6.71-2.72h.02c2.57,0,5.89.71,6.82,2.72.26.57.31,1.1.16,1.6-.58,1.82-3.86,2.63-6.5,2.77-.3.02-.62.03-.93.03ZM475.92,88.23h-.02c-3,0-5.43.93-6.06,2.3h0c-.09.19-.34.84-.07,1.47.57,1.29,3.27,2.07,6.59,1.89,3.07-.17,5.48-1.1,5.85-2.27.15-.48-.06-.93-.12-1.08-.64-1.38-3.11-2.3-6.16-2.3Z"/>
        </g>
        <g>
          <path class="cls-1" d="M475.18,94.62c-2.63,0-5.59-.6-6.35-2.34-.38-.87-.08-1.73.07-2.06h0c.92-2,4.19-2.71,6.71-2.72h.02c2.57,0,5.89.71,6.82,2.72.26.57.31,1.1.16,1.6-.58,1.82-3.86,2.63-6.5,2.77-.3.02-.62.03-.93.03ZM475.63,88.23h-.02c-3,0-5.43.93-6.06,2.3h0c-.09.19-.34.84-.07,1.47.57,1.29,3.27,2.07,6.59,1.89,3.07-.17,5.48-1.1,5.85-2.27.15-.48-.06-.93-.12-1.08-.64-1.38-3.11-2.3-6.16-2.3Z"/>
          <g class="cls-9">
            <g>
              <path class="cls-1" d="M473.93,87.07c1.91.17,3.89,1.78,3.8,3.8-.09,2.12-2.39,3.59-4.44,3.45-1.98-.13-4.01-1.79-3.91-3.83.1-2.13,2.47-3.61,4.55-3.42Z"/>
              <path class="cls-1" d="M473.57,94.7c-.1,0-.2,0-.3,0-2.1-.14-4.36-1.9-4.25-4.21.05-.96.51-1.87,1.32-2.57.98-.85,2.36-1.3,3.62-1.19,2.07.19,4.23,1.91,4.13,4.18-.04.95-.49,1.86-1.27,2.56-.89.79-2.08,1.25-3.25,1.25ZM473.57,87.41c-.98,0-2.01.38-2.76,1.03-.46.4-1.03,1.09-1.07,2.06-.09,1.84,1.82,3.34,3.58,3.46,1.05.08,2.21-.33,3.02-1.06.45-.4.99-1.09,1.04-2.05.08-1.83-1.77-3.28-3.48-3.43h0c-.11,0-.22-.01-.33-.01Z"/>
            </g>
          </g>
        </g>
        <g>
          <path class="cls-3" d="M489.22,94.77c4.38,1.62,4.41,8.33,6.41,8.24,1.54-.07,3.27-4.1,2.07-6.3-.73-1.34-2.38-1.71-2.33-1.83.07-.15,2.75.19,4.44,2.18,1.55,1.84,1.82,4.55,1.03,6.44-1.94,4.66-11.1,6.45-15.54,2.64-1.46-1.25-2.14-2.88-2.47-4.02-1.3,3.31-4.17,5.58-7.4,5.85-.39.03-4.47.3-6.72-2.79-2.17-2.97-1.5-7.51.87-9.4,1.86-1.48,4.59-1.19,4.65-.92.06.28-2.62.44-3.38,2.11-.77,1.69.49,4.8,2.3,5.25,2.52.63,3.89-4.44,10.01-6.76,1.81-.69,3.93-1.49,6.06-.7Z"/>
          <path class="cls-1" d="M491.63,108.59c-2.56,0-4.92-.75-6.57-2.16-.99-.85-1.75-1.96-2.28-3.3-1.48,2.95-4.27,4.97-7.32,5.22-.47.04-4.7.29-7.04-2.93-2.17-2.98-1.71-7.79.94-9.9,1.72-1.37,4.12-1.33,4.83-1.08.08.03.33.12.39.36.1.41-.32.54-.85.7-.79.24-2.1.64-2.56,1.64-.35.76-.23,1.94.28,3.02.44.92,1.11,1.57,1.77,1.73.99.25,1.82-.62,3.08-1.93,1.44-1.5,3.41-3.56,6.71-4.82,1.81-.69,4.05-1.54,6.31-.71h0c2.66.98,3.81,3.75,4.65,5.78.54,1.31,1.01,2.45,1.6,2.45,0,0,.01,0,.02,0,.4-.02.92-.49,1.34-1.24.73-1.3,1.12-3.27.43-4.53-.47-.86-1.38-1.28-1.87-1.5-.27-.12-.63-.29-.47-.65.04-.09.14-.21.35-.23.49-.07,3.03.36,4.7,2.34,1.55,1.83,1.99,4.63,1.09,6.81-.88,2.12-3.25,3.82-6.35,4.56-1.08.26-2.15.38-3.2.38ZM482.88,101.02l.3,1.01c.47,1.61,1.26,2.9,2.35,3.84,2.14,1.83,5.64,2.45,9.13,1.62,2.87-.68,5.06-2.23,5.85-4.13.68-1.64.57-4.25-.97-6.07-.65-.77-1.46-1.28-2.19-1.61.25.23.48.51.67.85.85,1.56.37,3.8-.44,5.23-.56.99-1.27,1.58-1.94,1.61-1.09.06-1.64-1.25-2.32-2.89-.83-2.01-1.87-4.5-4.23-5.38-2-.74-4.02.03-5.8.7-3.15,1.2-4.98,3.11-6.45,4.64-1.33,1.39-2.38,2.48-3.77,2.14-.88-.22-1.7-.99-2.25-2.12-.62-1.28-.73-2.67-.29-3.63.46-1.01,1.51-1.52,2.35-1.82-.88.04-2.09.28-3.06,1.06-2.14,1.7-2.96,5.96-.81,8.91,2.12,2.9,5.97,2.67,6.4,2.64,3.07-.25,5.85-2.46,7.09-5.62l.39-.98Z"/>
        </g>
        <g>
          <path class="cls-3" d="M487.05,88.96c-6.69,3.45-11.6,7.15-14.82,9.88-9.62,8.16-10.72,13.19-10.92,15.35-.1,1.09-.28,3.38,1.16,4.81,1.72,1.71,4.7,1.16,4.88,1.12,4.71-.95,4.21-6.93,11.57-16.17,2.96-3.71,5.98-6.45,9.17-8.59,1.26-.85,2.36-1.48,3.13-1.9l-4.18-4.5Z"/>
          <path class="cls-1" d="M466.04,120.59c-1.13,0-2.71-.23-3.82-1.34-1.59-1.58-1.36-4.05-1.26-5.1.42-4.48,4.14-9.72,11.05-15.59,4.49-3.81,9.5-7.15,14.89-9.93.18-.09.39-.02.48.15.09.18.02.39-.16.49-5.33,2.75-10.3,6.06-14.75,9.83-6.76,5.74-10.39,10.82-10.8,15.1-.09.95-.3,3.18,1.06,4.52,1.6,1.59,4.44,1.05,4.56,1.02,2.42-.49,3.39-2.44,4.98-5.67,1.29-2.61,3.06-6.19,6.38-10.37,2.82-3.54,5.84-6.37,9.25-8.67,1.02-.69,2.09-1.34,3.16-1.92.17-.09.39-.03.49.14.09.18.03.39-.14.49-1.05.57-2.1,1.21-3.1,1.88-3.35,2.26-6.32,5.04-9.09,8.52-3.27,4.11-4.95,7.51-6.3,10.24-1.64,3.31-2.72,5.5-5.49,6.06-.05.01-.62.12-1.39.12Z"/>
        </g>
        <g>
          <path class="cls-3" d="M492.82,90c-.08.17-.42.97-.07,1.76,1.39,3.16,12.15,2.61,13.11-.42.19-.6-.05-1.15-.14-1.34-1.53-3.3-11.34-3.38-12.89,0Z"/>
          <path class="cls-1" d="M498.78,94.25c-2.63,0-5.59-.6-6.35-2.34-.38-.87-.08-1.73.07-2.06h0c.92-2,4.19-2.71,6.71-2.72h.02c2.57,0,5.89.71,6.82,2.72.26.57.31,1.1.16,1.6-.58,1.82-3.86,2.63-6.49,2.77-.3.02-.62.02-.93.02ZM499.23,87.86h-.02c-3,0-5.43.93-6.06,2.3h0c-.09.19-.34.84-.07,1.47.57,1.29,3.28,2.07,6.59,1.89,3.07-.17,5.48-1.1,5.85-2.27.15-.48-.06-.93-.12-1.08-.64-1.38-3.11-2.3-6.16-2.3Z"/>
        </g>
        <g>
          <path class="cls-1" d="M498.49,94.25c-2.63,0-5.59-.6-6.35-2.34-.38-.87-.08-1.73.07-2.06h0c.92-2,4.19-2.71,6.71-2.72h.02c2.57,0,5.89.71,6.82,2.72.26.57.31,1.1.16,1.6-.58,1.82-3.86,2.63-6.49,2.77-.3.02-.62.02-.93.02ZM498.95,87.86h-.02c-3,0-5.43.93-6.06,2.3h0c-.09.19-.34.84-.07,1.47.57,1.29,3.28,2.07,6.59,1.89,3.07-.17,5.48-1.1,5.85-2.27.15-.48-.06-.93-.12-1.08-.64-1.38-3.11-2.3-6.16-2.3Z"/>
          <g class="cls-8">
            <g>
              <path class="cls-1" d="M496.38,86.62c1.91.17,3.89,1.78,3.8,3.8-.09,2.12-2.39,3.59-4.44,3.45-1.98-.13-4.01-1.79-3.91-3.83.1-2.13,2.47-3.61,4.55-3.42Z"/>
              <path class="cls-1" d="M496.01,94.25c-.1,0-.2,0-.3,0-2.1-.14-4.36-1.9-4.25-4.21.05-.96.51-1.87,1.32-2.57.98-.85,2.36-1.31,3.62-1.19,2.07.19,4.23,1.91,4.13,4.18-.04.95-.49,1.86-1.27,2.56-.89.79-2.08,1.25-3.25,1.25ZM496.01,86.97c-.98,0-2.01.38-2.75,1.03-.46.4-1.03,1.09-1.07,2.06-.09,1.84,1.82,3.34,3.58,3.46,1.05.07,2.21-.33,3.02-1.06.45-.4.99-1.09,1.04-2.05.08-1.83-1.77-3.28-3.48-3.43h0c-.11,0-.22-.01-.33-.01Z"/>
            </g>
          </g>
        </g>
        <g>
          <path class="cls-3" d="M532.67,91.79c.62-.48,2.2-1.54,3.76-1.11,2.57.71,3.65,5.1,2.58,7.78-1.27,3.19-6.07,5.16-11.48,3.67l5.14-10.35Z"/>
          <path class="cls-1" d="M531.17,103c-1.18,0-2.43-.16-3.74-.52-.19-.05-.3-.25-.25-.44.05-.19.25-.3.44-.25,5.46,1.49,9.91-.59,11.05-3.46.62-1.54.48-3.76-.33-5.39-.35-.71-.99-1.62-2.01-1.91-1.32-.37-2.73.5-3.44,1.05-.16.12-.38.09-.5-.07-.12-.16-.09-.38.07-.51.83-.63,2.45-1.62,4.07-1.17,1.01.28,1.87,1.07,2.47,2.28.89,1.8,1.04,4.26.35,5.98-.98,2.46-4.09,4.41-8.18,4.41Z"/>
        </g>
        <g>
          <path class="cls-3" d="M531.85,93.78c-.25,1.27-.33,2.76.52,3.52.73.65,1.81.47,1.86.82.05.38-1.12,1.1-1.93.78-.69-.28-.47-1.12-1.22-1.74-.79-.65-2.17-.65-3.19-.05-1.28.75-1.48,2.15-1.5,2.33l5.47-5.66Z"/>
          <path class="cls-1" d="M526.37,99.8s-.03,0-.05,0c-.2-.03-.34-.21-.31-.4.04-.29.29-1.77,1.68-2.59,1.16-.68,2.71-.65,3.6.08.44.36.6.78.73,1.12.13.33.19.49.4.57.44.18,1.07-.11,1.32-.33-.06-.01-.12-.03-.18-.04-.41-.09-.98-.21-1.45-.63-.78-.7-1-2-.63-3.86.04-.19.22-.33.42-.28.19.04.32.23.28.42-.31,1.59-.18,2.66.4,3.18.33.29.76.38,1.12.46.38.08.81.17.86.59.03.26-.12.53-.44.77-.48.37-1.31.65-1.98.38-.5-.2-.66-.61-.8-.98-.11-.3-.22-.58-.51-.82-.66-.54-1.88-.55-2.78-.02-1.1.65-1.3,1.83-1.33,2.06-.02.18-.18.31-.36.31Z"/>
        </g>
        <path class="cls-1" d="M507.94,86.68c-.4,0-.98-.24-1.82-.59-1.71-.7-4.57-1.88-8.78-2.42-1.82-.23-3.32-.27-4.42-.3-1.7-.04-2.55-.07-2.72-.75h0c-.07-.28.03-.59.29-.94.88-1.16,3.79-2.81,6.95-2.89,5.04-.15,9.49,3.96,10.76,6.18.37.65.46,1.12.27,1.42-.12.19-.29.28-.53.28ZM490.9,82.46c.16.16,1.16.18,2.04.2,1.11.03,2.64.07,4.49.31,4.31.55,7.22,1.75,8.97,2.46.59.24,1.2.49,1.46.53-.04-.21-.32-.85-1.11-1.78-1.87-2.21-5.42-4.76-9.28-4.65-2.83.07-5.51,1.53-6.35,2.55-.17.21-.21.34-.21.38Z"/>
        <path class="cls-1" d="M470.38,85.22c-.11,0-.21-.04-.31-.13-.15-.13-.31-.42-.03-1.31.56-1.78,2.43-4.57,5.24-4.94,2.37-.3,4.51,1.15,5.37,2.21.28.34.58.84.44,1.26h0c-.2.57-.89.52-1.94.45-1.42-.1-3.57-.24-5.93.82-.93.42-1.57.89-2,1.2-.34.24-.61.44-.85.44ZM475.91,79.53c-.18,0-.36.01-.54.03-1.85.24-3.11,1.7-3.7,2.55-.63.92-.94,1.74-1.04,2.19.05-.04.1-.08.16-.11.45-.33,1.13-.82,2.12-1.27,2.52-1.14,4.87-.98,6.27-.88.46.03,1.03.07,1.21,0-.02-.11-.14-.4-.59-.84-.88-.88-2.38-1.68-3.91-1.68ZM480.75,82.2h0,0ZM480.75,82.2h0,0Z"/>
        <g>
          <path class="cls-3" d="M521.01,69.51c-2.8-.87-7.62-1.24-9.37,1.34-1.58,2.32-.28,6.42,1.97,8.74,3.34,3.43,7.76,1.91,8.74,4.51.81,2.15-1.3,5.62-3.62,6.06-.73.14-2.01.08-2.58-.8-.5-.77-.26-1.9.28-2.54.72-.84,1.89-.74,1.88-.89-.02-.2-2.09-.78-3.66.23-1.69,1.09-2.28,3.67-1.39,5.4,1.04,2.02,3.75,2.2,5.19,2.3,2.33.16,3.26-.56,6.25-1.22,5.21-1.15,6.49.15,7.68-.93,3.4-3.09-1.3-19.08-11.36-22.21Z"/>
          <path class="cls-1" d="M519.09,94.25c-.21,0-.43,0-.66-.02-1.52-.1-4.35-.3-5.49-2.5-1.01-1.96-.3-4.7,1.51-5.87,1.53-.99,3.39-.61,3.9-.36.07.04.3.15.32.39.03.37-.34.44-.59.49-.36.07-.97.19-1.38.67-.44.52-.67,1.47-.25,2.1.49.75,1.66.75,2.21.64,1.03-.19,2.11-1.1,2.83-2.37.65-1.15.84-2.35.52-3.21-.4-1.08-1.53-1.33-3.08-1.68-1.69-.38-3.79-.86-5.58-2.7-2.35-2.42-3.72-6.68-2.01-9.19,1.86-2.74,6.87-2.38,9.78-1.48h0c6.54,2.03,10.96,9.45,12.3,15.48.76,3.45.47,6.19-.8,7.33-.67.61-1.37.58-2.43.54-1.09-.05-2.73-.12-5.41.47-1.01.22-1.78.45-2.46.65-1.14.34-2,.6-3.23.6ZM516.76,85.94c-.59,0-1.3.12-1.92.52-1.49.96-2.09,3.31-1.26,4.93.95,1.84,3.51,2.01,4.9,2.11,1.46.1,2.33-.16,3.63-.55.69-.21,1.48-.44,2.51-.67,2.77-.61,4.47-.54,5.6-.49,1.04.05,1.48.05,1.91-.35,1.05-.96,1.27-3.5.58-6.64-1.29-5.84-5.54-13.01-11.81-14.95h0c-2.7-.84-7.32-1.22-8.97,1.2-1.49,2.18-.17,6.12,1.93,8.28,1.64,1.69,3.55,2.12,5.22,2.5,1.64.37,3.05.69,3.59,2.13.39,1.05.18,2.48-.57,3.81-.81,1.45-2.09,2.49-3.32,2.73-.77.15-2.26.11-2.95-.96-.6-.93-.32-2.24.31-2.97.26-.31.57-.5.87-.64-.08,0-.17,0-.26,0Z"/>
        </g>
        <g>
          <g>
            <path class="cls-3" d="M542.22,42.32c-3.34,2.82-6.27,8.5-7.56,12.03-1.8,4.93-1.78,7.98-2.46,12.53-.08.54.03.57.01.89-.05.8-.03,1.35-.06,2.08,0,.26,0,.47,0,.7-.01,1.99-.08,3.97-.09,5.95,0,.06,0,.11,0,.16.08,1.46.1,2.91.35,4.36-2.26-.19-3.48-.28-5.95-.5-5.4-.46-11.58-1.08-17.16-1.71-.37-.04-.99-.11-1.31-.15-1.16-.13-3.22-.38-4.16-.48-7.01-.74-14.45-1.5-20.88-2.93-2.31-.52-2.46-1.12-4.11-1.86-.71-.32-.72-.7-1.1-1.03-.38-.33-.52-.55-.63-.87-.89-2.67-.47-4.85.21-7.48,0-.01,0,0,0-.01.07-.26.14-.45.21-.73.07-.28.15-.44.21-.77.18-.93.43-1.32.57-2.41,1.19-9.25.34-17.47-3.51-26.11,2.79-1.35,5.4-2.45,8.27-3.3,0,0,1.63-.48,3.4-.87,11.54-2.53,22.3-1.47,22.3-1.47s13.42,1.33,29.21,10.07c1.43.79,2.52,1.84,4.23,3.93Z"/>
            <path class="cls-1" d="M532.87,81.41l-.47-.04c-1.09-.09-1.94-.16-2.8-.23-.93-.08-1.87-.15-3.15-.26-5.39-.46-11.48-1.07-17.17-1.71l-2.35-.27c-1.11-.13-2.42-.28-3.12-.36l-.75-.08c-6.86-.72-13.95-1.47-20.17-2.86-1.54-.35-2.19-.74-2.86-1.16-.37-.23-.75-.47-1.32-.72-.55-.25-.76-.54-.93-.78-.08-.11-.15-.21-.26-.3-.41-.35-.6-.62-.74-1.03-.93-2.78-.48-5.03.2-7.69l.02-.06c.03-.1.06-.19.08-.29.04-.12.07-.24.11-.39.03-.13.06-.23.1-.33.04-.12.08-.24.11-.42.08-.41.17-.71.26-1.01.12-.4.23-.77.31-1.38,1.25-9.71.18-17.7-3.48-25.92l-.14-.32.31-.15c3.14-1.52,5.71-2.54,8.33-3.32.02,0,1.66-.49,3.42-.87,11.46-2.52,22.3-1.49,22.41-1.48h0c.09,0,13.6,1.39,29.35,10.11,1.43.79,2.53,1.8,4.34,4.01l.23.28-.27.23c-3.09,2.61-6.03,7.99-7.45,11.88-1.34,3.68-1.66,6.29-2.03,9.31-.12.99-.25,2.03-.42,3.15-.04.27-.02.37,0,.48.01.09.03.21.02.38-.03.48-.04.87-.04,1.27,0,.26,0,.51-.02.8,0,.2,0,.36,0,.53v.15c0,.94-.02,1.87-.04,2.81-.02,1.05-.04,2.09-.04,3.14,0,.05,0,.09,0,.13.02.31.03.61.04.9.05,1.18.1,2.29.3,3.43l.08.46ZM477.66,64.14c-.64,2.51-1.07,4.65-.2,7.23.08.25.18.41.52.71.17.15.28.3.37.43.15.21.27.38.64.55.61.27,1.03.54,1.4.77.65.4,1.22.75,2.64,1.07,6.18,1.38,13.25,2.13,20.09,2.85l.75.08c.7.07,2.02.23,3.13.36l2.35.27c5.6.63,11.85,1.25,17.15,1.71,1.28.11,2.22.19,3.15.26.74.06,1.47.12,2.35.19-.15-1.03-.2-2.06-.24-3.06-.01-.29-.03-.59-.04-.88,0-.07,0-.13,0-.18,0-1.05.02-2.1.04-3.16.02-.93.04-1.86.04-2.79v-.15c0-.18,0-.35,0-.56,0-.28.01-.53.01-.78,0-.41,0-.81.04-1.31,0-.09,0-.14-.01-.22-.02-.14-.05-.32,0-.7.17-1.12.29-2.14.41-3.13.37-3.07.7-5.71,2.06-9.47,1.41-3.87,4.3-9.18,7.39-11.95-1.61-1.94-2.62-2.86-3.91-3.57-15.54-8.6-28.94-10.01-29.07-10.02-.11-.01-10.84-1.03-22.19,1.46-1.74.38-3.36.86-3.37.86-2.49.74-4.94,1.71-7.9,3.13,3.6,8.23,4.65,16.26,3.39,25.98-.09.67-.21,1.09-.33,1.5-.09.29-.17.57-.24.94-.04.21-.09.35-.13.5-.03.09-.06.18-.08.28-.04.16-.08.3-.12.43-.03.1-.06.19-.09.3l-.02.06Z"/>
          </g>
          <g>
            <path class="cls-3" d="M532.09,75.09c.98-.27,1.95-.49,2.96-.33,1.01.15,1.78.63,2.63,1.15,0,1.37-.02,2.74-.02,4.11-.8.3-1.48.6-2.34.78-.86.18-1.85.23-2.75.24-.17-1.98-.33-3.96-.48-5.94Z"/>
            <path class="cls-1" d="M532.57,81.4c-.19,0-.34-.14-.36-.33-.17-1.98-.33-3.96-.48-5.95-.01-.17.1-.33.26-.37.91-.26,1.98-.52,3.11-.34,1.1.17,1.95.69,2.77,1.2.11.07.17.18.17.31v.49c-.01,1.21-.02,2.41-.02,3.62,0,.15-.09.28-.23.34l-.35.13c-.66.26-1.28.5-2.04.66-.76.16-1.71.24-2.82.24h0ZM532.47,75.36c.14,1.77.28,3.54.43,5.31.92-.02,1.71-.09,2.35-.23.7-.15,1.27-.37,1.93-.62l.12-.05c0-1.13,0-2.25.01-3.38v-.28c-.73-.45-1.43-.86-2.32-.99-.81-.12-1.6,0-2.52.25Z"/>
          </g>
          <g>
            <path class="cls-3" d="M537.23,77.37c.22.03.34.29.21.47s-.46.16-.55-.05c-.09-.21.12-.45.34-.42Z"/>
            <path class="cls-1" d="M537.18,78.32s-.06,0-.08,0c-.24-.03-.45-.18-.54-.4-.09-.21-.05-.45.09-.64.15-.2.38-.3.62-.27.23.03.43.18.52.39.09.22.07.46-.07.64-.12.17-.33.27-.55.27ZM537.18,77.6l-.04.09.05.03s.04,0,.04,0l-.04-.11Z"/>
          </g>
          <g>
            <path class="cls-3" d="M534.73,77.43c.29.05.43.4.25.63s-.62.19-.72-.1c-.1-.29.18-.58.47-.54Z"/>
            <path class="cls-1" d="M534.65,78.57s-.09,0-.13,0c-.28-.04-.51-.22-.6-.47-.09-.25-.04-.52.14-.73.18-.22.46-.33.73-.28h0c.26.04.48.22.58.47.1.25.06.52-.1.73-.14.18-.37.29-.61.29ZM534.67,77.78s-.02,0-.04.02c-.01.05.05.06.07.04l.03-.41-.06.36h0Z"/>
          </g>
          <g>
            <path class="cls-1" d="M532.21,66.99c0,.28,0,.59,0,.87,0,.68-.03,1.34-.04,2.01-.14-.01-.28-.03-.43-.06-1.55-.33-3.06-.67-4.63-.95-7.3-1.29-14.62-2.56-21.94-3.74-.38-.06-.75-.11-1.14-.17-1.06-.15-2.12-.3-3.19-.42-3.41-.39-6.83-.71-10.26-.97-.04,0-.11,0-.15,0-4.17-.21-8.34-.28-12.51-.27-.12,0-.3.15-.33-.06-.04-.21.11-.48.18-.73.18-.72.38-1.49.55-2.23,4.15-.04,8.29.07,12.44.3.12,0,.23.02.34.03,3.4.29,6.79.63,10.18,1.03,1.04.12,2.06.28,3.08.42.45.06.89.12,1.33.19,7.2,1.15,14.39,2.39,21.56,3.72,1.67.31,3.31.67,4.97,1.04Z"/>
            <path class="cls-1" d="M532.52,70.26l-.39-.04c-.16-.02-.31-.03-.47-.07l-1.1-.23c-1.14-.25-2.33-.5-3.52-.71-6.95-1.23-14.42-2.53-21.94-3.74-.37-.06-.74-.11-1.13-.17l-.28-.04c-.96-.13-1.93-.27-2.9-.38-3.3-.37-6.75-.7-10.25-.97h-.12c-3.95-.2-8.04-.29-12.52-.27-.1.04-.28.1-.47-.01-.08-.05-.19-.15-.22-.35-.04-.24.04-.46.11-.66.03-.07.05-.15.07-.22l.17-.67c.13-.51.26-1.04.38-1.55l.06-.28h.28c4-.04,8.07.06,12.46.3.09,0,.18.01.27.02h.09c3.56.31,6.98.66,10.19,1.04.75.09,1.5.19,2.24.3l.84.12c.49.07.91.13,1.34.19,7.06,1.13,14.31,2.38,21.57,3.72,1.5.28,3,.6,4.45.92l.83.18v.3c-.01.16-.01.34-.01.51v.36c0,.31-.01.62-.02.92,0,.36-.02.72-.02,1.08v.39ZM478.95,62.92c4.1,0,7.87.09,11.5.27h.16c3.52.28,6.97.61,10.28.98.98.11,1.95.25,2.92.38l.28.04c.39.05.76.11,1.14.17,7.52,1.21,14.99,2.51,21.95,3.74,1.2.21,2.39.47,3.54.72l1.09.23c0-.23,0-.46.02-.68,0-.3.01-.61.02-.92v-.35c0-.08,0-.15,0-.23l-.25-.05c-1.44-.32-2.94-.64-4.42-.92-7.25-1.34-14.5-2.59-21.55-3.71-.42-.07-.84-.13-1.27-.18l-.9-.13c-.74-.1-1.48-.21-2.23-.3-3.19-.38-6.61-.73-10.16-1.03l-.34-.03c-4.27-.23-8.24-.33-12.13-.3-.1.43-.21.86-.32,1.29l-.17.67c-.02.09-.06.19-.09.29,0,.02-.01.04-.02.06.32,0,.63,0,.95,0Z"/>
          </g>
          <g>
            <path class="cls-1" d="M491.07,60.55c-.11,1.1-.44,1.96-.65,2.99-.05.25-.12.49-.19.7-.24.79-.5,1.77-.81,2.46-1.67,3.69-3.55,6.34-7.01,8.43-.27.16-.44.21-.75.21-3.37,0-6.2-.61-9.24-2.2-2.62-1.37-4.94-3.4-7.07-5.44-.23-.22-.41-.47-.56-.68-.88-1.25-1.48-2.48-1.97-3.89.07,0,.16.01.22.01,4.73.2,9.44.46,14.15.86.01,0-.03.04.03,0,.05-.04.04.15.11-.05s.14-.42.2-.68c.06-.26.15-.43.21-.76.18-.92.43-1.31.57-2.41,1.2-9.24.32-17.47-3.49-26.11,3.68-1.85,7.39-3.22,11.41-4.14,5.02,10.13,5.91,19.59,4.83,30.71Z"/>
            <path class="cls-1" d="M481.67,75.68c-3.54,0-6.44-.69-9.41-2.24-2.76-1.44-5.17-3.59-7.16-5.5-.24-.24-.43-.49-.6-.73-.87-1.23-1.49-2.46-2.02-3.98l-.19-.56.58.08s.1,0,.15,0c5.48.23,9.93.5,14.04.85.05-.14.09-.29.13-.45.03-.12.06-.22.09-.32.04-.12.08-.25.11-.42.08-.4.17-.71.26-1.01.12-.4.23-.77.31-1.38,1.25-9.66.18-17.66-3.46-25.92l-.14-.31.31-.15c3.82-1.91,7.57-3.28,11.49-4.17l.28-.06.13.25c4.61,9.31,6.07,18.56,4.87,30.91h0c-.07.72-.23,1.34-.39,1.94-.09.35-.19.7-.26,1.08-.05.27-.13.52-.2.73l-.17.55c-.2.68-.41,1.39-.66,1.94-1.89,4.18-3.97,6.66-7.15,8.59-.32.19-.56.26-.94.26ZM463.35,63.5c.47,1.23,1.01,2.26,1.74,3.3.15.21.31.43.51.62,1.96,1.88,4.31,3.99,6.99,5.38,2.89,1.51,5.61,2.15,9.07,2.16.25,0,.35-.03.56-.16,3.56-2.15,5.32-4.86,6.87-8.27.23-.51.43-1.19.63-1.85l.17-.56c.06-.2.13-.42.18-.66.08-.39.17-.76.27-1.12.16-.6.31-1.17.37-1.83h0c1.17-12.1-.23-21.17-4.67-30.27-3.65.85-7.17,2.13-10.74,3.89,3.59,8.28,4.63,16.31,3.38,25.99-.09.67-.21,1.09-.33,1.49-.09.29-.17.57-.24.94-.04.21-.09.36-.14.51-.03.09-.06.17-.08.27-.07.27-.14.51-.21.71-.03.08-.11.31-.35.33h-.01s-.08.07-.08.07l-.08-.05h-.06s-.04-.06-.04-.06c-4.03-.35-8.4-.61-13.7-.84ZM477.57,63.8h0s0,0,0,0Z"/>
          </g>
          <g>
            <path class="cls-1" d="M538.46,38.8c-6.88,8.11-9.12,15.24-9.97,19.33-.83,3.95-1.2,9.13-1.35,11.18-.33,4.54-.36,8.37-.31,11.15-1.25-.12-14.65-1.37-17.76-1.68-.19-.02-.65-.05-1.25-.14-1.22-.18-2.91-.44-4.21-.72-.04-.4-.08-.99-.12-1.7-.25-4.53.16-7.94.54-10.94.89-6.97,1.32-10.46,1.94-13.79.91-4.85,1.75-8.51,2.55-11.86,1.02-4.25,1.98-7.85,2.76-10.61.11.01.23.03.36.05.13.02.22.03.22.03,9.8,1.17,21.18,6.79,21.18,6.79,1.35.67,3.22,1.64,5.41,2.92Z"/>
            <path class="cls-1" d="M527.2,80.85l-.4-.04c-1.74-.16-14.72-1.37-17.76-1.68h-.13c-.24-.03-.64-.07-1.13-.14-1.19-.17-2.9-.44-4.24-.73l-.26-.06-.02-.26c-.04-.4-.08-.99-.13-1.72-.26-4.69.19-8.19.55-11l.22-1.68c.75-5.85,1.16-9.07,1.73-12.13.94-5.04,1.81-8.77,2.55-11.88.85-3.54,1.78-7.12,2.76-10.62l.08-.3.88.11c9.69,1.16,20.83,6.59,21.3,6.82,1.84.91,3.67,1.89,5.44,2.93l.37.22-.28.33c-5.18,6.11-8.51,12.56-9.89,19.17-.82,3.92-1.2,9.15-1.35,11.12-.27,3.7-.37,7.44-.31,11.13v.4ZM503.95,77.62c1.28.26,2.82.51,3.93.67.48.07.86.1,1.09.12h.14c2.87.3,14.58,1.39,17.36,1.65-.05-3.57.05-7.2.31-10.78.15-1.99.53-7.26,1.36-11.23,1.38-6.61,4.67-13.06,9.77-19.16-1.64-.95-3.33-1.86-5.02-2.69h0c-.47-.23-11.5-5.61-21.06-6.75.04.01-.07,0-.22-.03h-.05c-.95,3.39-1.85,6.85-2.67,10.29-.74,3.1-1.61,6.82-2.54,11.84-.57,3.04-.98,6.25-1.72,12.09l-.22,1.68c-.36,2.79-.8,6.25-.54,10.87.03.57.07,1.05.1,1.43Z"/>
          </g>
          <g>
            <path class="cls-1" d="M451.97,60.43c-.97,0-4.27.06-7.4,2.24-3.81,2.66-6.9,8.19-5.28,10.9,1.3,2.18,4.96,1.44,21.34-.05,12.48-1.14,15.6-1.19,15.82-2.45.26-1.49-3.91-2.25-17.81-8.94-1.22-.59-3.54-1.71-6.68-1.7Z"/>
            <path class="cls-1" d="M443.36,75.3c-2.63,0-3.72-.44-4.38-1.54-1.77-2.98,1.49-8.66,5.38-11.38,1.5-1.05,4.03-2.29,7.6-2.3v.36s0-.36,0-.36h.04c3.18,0,5.51,1.12,6.77,1.73,5.5,2.65,9.4,4.33,12.25,5.56,4.61,1.99,6,2.59,5.79,3.77-.24,1.34-2.1,1.51-11.03,2.29-1.5.13-3.2.28-5.12.46-2.38.22-4.49.42-6.37.6-5.27.5-8.68.83-10.94.83ZM452,60.79h-.04c-3.39,0-5.78,1.19-7.19,2.17-3.54,2.48-6.69,7.88-5.18,10.42.99,1.67,3.88,1.39,14.63.37,1.88-.18,3.99-.38,6.37-.6,1.92-.18,3.62-.32,5.12-.46,7.24-.64,10.24-.9,10.38-1.7.11-.62-1.72-1.41-5.36-2.99-2.85-1.23-6.76-2.92-12.25-5.56-1.23-.59-3.47-1.67-6.48-1.67Z"/>
          </g>
          <g>
            <path class="cls-3" d="M502.52,78.04c-1.5-.01-3.51-.03-5.88-.08-6.1-.13-5.96-.26-8.83-.28-5.86-.04-11.74.48-15.59-.82-.89-.3-1.55-.63-2.39-1.21-3.86-2.64-2.81-5.86-6.07-9.55-3.02-3.43-7.35-4.54-8.44-4.81-2.61-.67-5.12-.76-4.96-.77,1.33-.07,3.17-.16,5.36-.23,1.68-.06,4.46-.16,8.04-.2,0,0,7.99-.09,14.19.49.78.07,1.77.19,3,.47,1.59.36,2.86.84,3.9,1.23,0,0,1.36.52,2.5,1.05,5.8,2.71,9.67,7.29,9.67,7.29.7.83,1.82,2.37,4.06,5.44.61.83,1.1,1.52,1.44,1.99Z"/>
            <path class="cls-1" d="M502.52,78.4h0c-1.5-.01-3.51-.03-5.88-.08-3.3-.07-4.8-.14-5.9-.19-.94-.05-1.62-.08-2.93-.09-1.39,0-2.79.01-4.15.04-4.4.07-8.56.14-11.55-.88-.93-.32-1.63-.67-2.48-1.25-2.23-1.53-2.89-3.25-3.6-5.08-.56-1.45-1.13-2.94-2.54-4.54-1.34-1.53-3.87-3.58-8.26-4.7-1.41-.36-3.01-.61-4.75-.74-.16-.01-.49-.04-.49-.38,0-.19.16-.35.35-.36,1.33-.07,3.17-.16,5.37-.23,1.52-.05,4.35-.16,8.05-.2.08,0,8.08-.08,14.22.49.82.08,1.82.19,3.05.47,1.66.37,2.98.88,3.95,1.25.01,0,1.39.53,2.52,1.06,5.8,2.71,9.75,7.34,9.79,7.39.71.84,1.83,2.38,4.07,5.46.61.83,1.1,1.53,1.44,1.99.08.11.09.26.03.38-.06.12-.19.19-.32.19ZM487.14,77.31c.22,0,.45,0,.67,0,1.33,0,2.01.04,2.96.09,1.09.05,2.58.12,5.88.19,2.01.04,3.76.06,5.16.08-.28-.4-.63-.87-1.02-1.41-2.23-3.07-3.35-4.61-4.04-5.42-.04-.05-3.89-4.56-9.54-7.2-1.11-.52-2.46-1.03-2.48-1.04-.95-.36-2.25-.86-3.85-1.22-1.2-.27-2.17-.38-2.96-.46-6.11-.57-14.07-.49-14.15-.49-3.68.04-6.51.14-8.03.2-.48.02-.94.03-1.38.05.36.07.71.15,1.05.24,4.57,1.17,7.21,3.32,8.62,4.92,1.49,1.69,2.12,3.32,2.67,4.75.69,1.79,1.28,3.34,3.33,4.74.81.55,1.43.87,2.3,1.16,2.87.98,6.97.91,11.31.84,1.15-.02,2.32-.04,3.5-.04Z"/>
          </g>
        </g>
        <path class="cls-1" d="M500.14,88.85c.76,1.24.62,2.77.05,3.85-.27.51-.6.86-.82,1.06-4.04-.15-6.86-1.21-7.05-2.58-.18-1.36,2.25-2.78,2.4-2.87,1.79-1.03,3.59-.79,4.18-.68.71.43,1.07.94,1.24,1.22Z"/>
        <path class="cls-1" d="M477.11,89.27c.76,1.24.62,2.77.05,3.85-.27.51-.6.86-.82,1.06-4.04-.15-6.86-1.21-7.05-2.58-.18-1.36,2.25-2.78,2.4-2.87,1.79-1.03,3.59-.79,4.18-.68.71.43,1.07.94,1.24,1.22Z"/>
        <path class="cls-1" d="M469.89,129.96l2.33,2.87s6.6-5.04,6.78-5.05.92-2.69.92-2.69l-3.04-.54s-4.94,3.4-4.94,3.46-2.05,1.96-2.05,1.96Z"/>
      </g>
    </g>
  </g>
</svg>