<?xml version="1.0" encoding="UTF-8"?>
<svg id="Layer_2" data-name="Layer 2" xmlns="http://www.w3.org/2000/svg" viewBox="0 0 703.62 171.92">
  <defs>
    <style>
      .cls-1 {
        fill: #231f20;
      }
    </style>
  </defs>
  <g id="mister_nop" data-name="mister nop">
    <path class="cls-1" d="M166.3,0l18.43,164.95-24.72,1.8-9.21-95.06h-.45l-57.98,95.06-57.98-95.06h-.45l-9.21,95.06-24.72-1.8L18.43,0l73.94,121.8L166.3,0Z"/>
    <path class="cls-1" d="M216.64,4.05h24.72l-28.31,59.1h-20.23l23.82-59.1Z"/>
    <path class="cls-1" d="M281.58,164.95l-23.82,1.8V0l106.97,110.34V4.95l23.82-1.8v168.77l-106.97-112.14v105.17Z"/>
    <path class="cls-1" d="M576.09,51.35c-4.72-10.41-11.24-19.47-19.55-27.19s-17.72-13.67-28.2-17.87c-10.49-4.19-21.28-6.29-32.36-6.29s-21.92,2.1-32.48,6.29c-10.56,4.2-19.96,10.15-28.2,17.87s-14.72,16.78-19.44,27.19c-4.72,10.42-7.08,21.61-7.08,33.6s2.36,23.18,7.08,33.6c4.72,10.41,11.24,19.47,19.55,27.19,8.32,7.72,17.72,13.67,28.2,17.86,10.49,4.2,21.28,6.3,32.37,6.3s21.91-2.1,32.47-6.3c10.56-4.19,19.96-10.14,28.2-17.86s14.72-16.78,19.44-27.19c4.72-10.42,7.08-21.61,7.08-33.6s-2.36-23.18-7.08-33.6ZM472.27,142.25c-2.53-1.05-4.95-2.23-7.28-3.57-.15-.08-.29-.16-.43-.25-.16-.08-.31-.17-.46-.26-.32-.19-.63-.38-.94-.58-.15-.09-.3-.18-.45-.27-.14-.09-.27-.17-.4-.26-.58-.37-1.16-.75-1.73-1.14-.15-.1-.29-.2-.44-.3-.14-.11-.29-.21-.43-.32-2.66-1.88-5.18-3.99-7.56-6.3-4.2-4.1-7.75-8.69-10.63-13.75-.41-.71-.81-1.44-1.18-2.17-.14-.25-.27-.51-.39-.76-.1-.2-.2-.4-.3-.6-.09-.17-.17-.34-.25-.52-.19-.38-.37-.77-.54-1.16-.07-.15-.14-.3-.21-.45-.07-.16-.14-.32-.21-.48h0c-.97-2.24-1.79-4.51-2.47-6.82-.06-.17-.11-.35-.16-.52-.06-.2-.11-.4-.17-.6-1.43-5.19-2.14-10.6-2.14-16.22,0-8.54,1.65-16.59,4.94-24.16,3.3-7.56,7.87-14.19,13.71-19.89,5.85-5.69,12.55-10.11,20.12-13.26,7.56-3.14,15.46-4.72,23.71-4.72s16.14,1.58,23.7,4.72c3.62,1.51,7.05,3.3,10.27,5.38,1.47.93,2.89,1.93,4.28,2.99.03.02.06.04.09.07.42.32.84.65,1.25.99.05.03.11.08.16.12.36.3.73.6,1.08.9.11.09.21.17.31.27.51.43,1.01.87,1.5,1.32.09.08.18.16.26.25.09.07.17.15.26.25.22.19.44.4.66.61.82.79,1.62,1.6,2.38,2.43.09.09.17.18.25.27.09.09.17.18.25.27.22.24.44.49.66.74,4.18,4.76,7.57,10.16,10.17,16.18,3.29,7.64,4.94,15.73,4.94,24.27,0,6.99-1.1,13.65-3.31,19.98-.49,1.41-1.03,2.8-1.63,4.18-3.3,7.56-7.87,14.19-13.71,19.89-5.85,5.69-12.55,10.11-20.12,13.25-7.56,3.15-15.47,4.72-23.7,4.72-.38,0-.76,0-1.14-.01-7.84-.14-15.36-1.71-22.57-4.71Z"/>
    <path class="cls-1" d="M602.27,4.05h46.29c16.33,0,29.59,4.2,39.78,12.58,10.19,8.39,15.28,19.7,15.28,33.93s-5.43,26.97-16.29,36.41c-10.86,9.44-26.86,14.16-47.98,14.16-4.65,0-8.76-.22-12.36-.67v64.5l-24.72,1.8V4.05ZM626.99,78.43c4.04,1.05,9.74,1.57,17.08,1.57,10.79,0,19.29-2.47,25.51-7.42,6.22-4.94,9.33-11.83,9.33-20.67,0-8.09-2.85-14.72-8.54-19.89-5.7-5.17-13.48-7.75-23.37-7.75h-20v54.16Z"/>
  </g>
</svg>