<?xml version="1.0" encoding="UTF-8"?>
<svg id="Layer_2" data-name="Layer 2" xmlns="http://www.w3.org/2000/svg" viewBox="0 0 31.05 28.41">
  <defs>
    <style>
      .cls-1 {
        fill: #231f20;
      }

      .cls-1, .cls-2, .cls-3 {
        stroke-linecap: round;
      }

      .cls-1, .cls-2, .cls-3, .cls-4 {
        stroke: #231f20;
      }

      .cls-1, .cls-3, .cls-4 {
        stroke-miterlimit: 10;
      }

      .cls-2 {
        stroke-linejoin: round;
      }

      .cls-2, .cls-3 {
        fill: #fff;
      }

      .cls-4 {
        fill: #ed1c24;
      }
    </style>
  </defs>
  <g id="Layer_9" data-name="Layer 9">
    <g>
      <path class="cls-4" d="M28.03,15.2l-.33.32-12.17,12.18L3.03,15.2C-.34,11.84-.34,6.39,3.03,3.02c1.68-1.68,3.88-2.52,6.09-2.52s4.4.84,6.08,2.52l.33.33.32-.33c1.68-1.68,3.89-2.52,6.09-2.52s4.41.84,6.09,2.52c3.36,3.37,3.36,8.82,0,12.18Z"/>
      <g>
        <rect class="cls-3" x="17.9" y="7.87" width="4.78" height="4.78" rx="2.39" ry="2.39"/>
        <rect class="cls-1" x="19.32" y="8.88" width="2.94" height="2.94" rx="1.47" ry="1.47"/>
      </g>
      <g>
        <rect class="cls-3" x="8.36" y="7.87" width="4.78" height="4.78" rx="2.39" ry="2.39"/>
        <rect class="cls-1" x="9.78" y="8.88" width="2.94" height="2.94" rx="1.47" ry="1.47"/>
      </g>
      <path class="cls-2" d="M17.92,13.37h0c0,1.32-1.07,2.39-2.39,2.39h0c-1.32,0-2.39-1.07-2.39-2.39h0s4.78,0,4.78,0Z"/>
    </g>
  </g>
</svg>