<?xml version="1.0" encoding="UTF-8"?>
<svg id="Layer_2" data-name="Layer 2" xmlns="http://www.w3.org/2000/svg" viewBox="0 0 31.33 29.27">
  <defs>
    <style>
      .cls-1, .cls-2 {
        fill: #231f20;
      }

      .cls-1, .cls-3, .cls-4 {
        stroke: #231f20;
        stroke-linecap: round;
      }

      .cls-1, .cls-4 {
        stroke-miterlimit: 10;
      }

      .cls-5, .cls-3, .cls-4 {
        fill: #fff;
      }

      .cls-3 {
        stroke-linejoin: round;
      }
    </style>
  </defs>
  <g id="Layer_9" data-name="Layer 9">
    <g>
      <path class="cls-4" d="M25.58,23.59h-9.92l-6.09,4.97c-.81.66-1.81-.27-1.65-1.51l.45-3.45h-2.63c-2.9,0-5.24-3.15-5.24-7.03V7.53C.5,3.65,2.85.5,5.74.5h19.84c2.9,0,5.24,3.15,5.24,7.03v9.02c0,3.88-2.35,7.03-5.24,7.03Z"/>
      <g>
        <rect class="cls-4" x="18.04" y="7.97" width="4.78" height="4.78" rx="2.39" ry="2.39"/>
        <rect class="cls-1" x="19.45" y="8.98" width="2.94" height="2.94" rx="1.47" ry="1.47"/>
      </g>
      <g>
        <rect class="cls-4" x="8.5" y="7.97" width="4.78" height="4.78" rx="2.39" ry="2.39"/>
        <rect class="cls-1" x="9.92" y="8.98" width="2.94" height="2.94" rx="1.47" ry="1.47"/>
      </g>
      <path class="cls-3" d="M18.06,15.65h0c0,1.32-1.07,2.39-2.39,2.39h0c-1.32,0-2.39-1.07-2.39-2.39h0s4.78,0,4.78,0Z"/>
      <g>
        <path class="cls-5" d="M14.78,14.07c-.71-.41-1.21-.39-1.53-.29-.8.23-.95,1.01-1.9,1.28-.55.15-1.01.04-1.19,0-.69-.18-1.15-.62-1.36-.85"/>
        <path class="cls-2" d="M14.43,14.68c-1.12-.51-1.31.26-2.18.78-1.31.73-2.97.09-3.57-1.14-.08-.16.11-.34.26-.24.78.48,1.85.68,2.52.13.41-.35.76-.95,1.45-1.16.41-.15.88-.15,1.26-.06.38.11.71.27.98.47.65.49.04,1.54-.71,1.21h0Z"/>
      </g>
      <g>
        <path class="cls-5" d="M16.54,14.07c.71-.41,1.21-.39,1.53-.29.8.23.95,1.01,1.9,1.28.55.15,1.01.04,1.19,0,.69-.18,1.15-.62,1.36-.85"/>
        <path class="cls-2" d="M16.19,13.46c.87-.77,2.51-.67,3.21.26.71,1.04,1.95,1.01,3,.36.93-.08-.73,1.49-1.17,1.51-.63.26-1.45.26-2.15-.13-.5-.27-.8-.73-1.19-.9-.21-.1-.58-.04-1.01.13-.75.29-1.32-.75-.68-1.22h0Z"/>
      </g>
      <path class="cls-3" d="M17.66,12.58c0,1.1-.89,1.99-1.99,1.99s-1.99-.89-1.99-1.99"/>
    </g>
  </g>
</svg>