<?xml version="1.0" encoding="UTF-8"?>
<svg id="Layer_2" data-name="Layer 2" xmlns="http://www.w3.org/2000/svg" viewBox="0 0 28.84 30.26">
  <defs>
    <style>
      .cls-1 {
        fill: #231f20;
      }

      .cls-1, .cls-2, .cls-3 {
        stroke: #231f20;
        stroke-linecap: round;
      }

      .cls-1, .cls-3 {
        stroke-miterlimit: 10;
      }

      .cls-2 {
        stroke-linejoin: round;
      }

      .cls-2, .cls-3 {
        fill: #fff;
      }
    </style>
  </defs>
  <g id="Layer_9" data-name="Layer 9">
    <rect class="cls-3" x="9.58" y="20.08" width="9.68" height="9.68" rx="4.84" ry="4.84"/>
    <path class="cls-2" d="M25.61,25.31H3.23C-.11,22.45-.44,17,2.54,13.68l.69-.77C3.23,6.05,8.24.5,14.42.5h0c6.18,0,11.19,5.55,11.19,12.41l.69.77c2.97,3.32,2.65,8.78-.69,11.64h0Z"/>
    <g>
      <rect class="cls-3" x="16.79" y="6.56" width="4.78" height="4.78" rx="2.39" ry="2.39"/>
      <rect class="cls-1" x="18.21" y="7.56" width="2.94" height="2.94" rx="1.47" ry="1.47"/>
    </g>
    <g>
      <rect class="cls-3" x="7.26" y="6.56" width="4.78" height="4.78" rx="2.39" ry="2.39"/>
      <rect class="cls-1" x="8.67" y="7.56" width="2.94" height="2.94" rx="1.47" ry="1.47"/>
    </g>
    <path class="cls-2" d="M16.81,12.05h0c0,1.32-1.07,2.39-2.39,2.39h0c-1.32,0-2.39-1.07-2.39-2.39h0s4.78,0,4.78,0Z"/>
  </g>
</svg>