<?xml version="1.0" encoding="UTF-8"?>
<svg id="Layer_2" data-name="Layer 2" xmlns="http://www.w3.org/2000/svg" viewBox="0 0 31.05 28.41">
  <defs>
    <style>
      .cls-1, .cls-2 {
        stroke-linecap: round;
      }

      .cls-1, .cls-2, .cls-3 {
        stroke: #231f20;
      }

      .cls-1, .cls-3 {
        fill: none;
        stroke-miterlimit: 10;
      }

      .cls-2 {
        fill: #fff;
        stroke-linejoin: round;
      }
    </style>
  </defs>
  <g id="Layer_9" data-name="Layer 9">
    <g>
      <path class="cls-3" d="M28.03,15.2l-.33.32-12.17,12.18L3.03,15.2C-.34,11.84-.34,6.39,3.03,3.02c1.68-1.68,3.88-2.52,6.09-2.52s4.4.84,6.08,2.52l.33.33.32-.33c1.68-1.68,3.89-2.52,6.09-2.52s4.41.84,6.09,2.52c3.36,3.37,3.36,8.82,0,12.18Z"/>
      <path class="cls-2" d="M13.13,15.76h0c0-1.32,1.07-2.39,2.39-2.39h0c1.32,0,2.39,1.07,2.39,2.39h0s-4.78,0-4.78,0Z"/>
      <g>
        <line class="cls-1" x1="18.52" y1="8.5" x2="22.06" y2="12.03"/>
        <line class="cls-1" x1="18.52" y1="12.03" x2="22.06" y2="8.5"/>
      </g>
      <g>
        <line class="cls-1" x1="8.99" y1="8.5" x2="12.52" y2="12.03"/>
        <line class="cls-1" x1="8.99" y1="12.03" x2="12.52" y2="8.5"/>
      </g>
    </g>
  </g>
</svg>